<svg width="81" height="79" viewBox="0 0 81 79" fill="none" xmlns="http://www.w3.org/2000/svg">
<path d="M51.3 79H43.2C41.7683 78.9986 40.3956 78.4292 39.3832 77.4168C38.3708 76.4044 37.8014 75.0317 37.8 73.6V60.1H43.2V73.6H51.3V60.1H56.7V49.3C56.6993 48.5841 56.4146 47.8978 55.9084 47.3916C55.4022 46.8854 54.7159 46.6007 54 46.6H30.456L25.056 30.4H8.1C7.38414 30.4007 6.69779 30.6854 6.1916 31.1916C5.68541 31.6978 5.40071 32.3841 5.4 33.1V49.3H10.8V73.6H21.6V54.7H27V73.6C26.9986 75.0317 26.4292 76.4044 25.4168 77.4168C24.4044 78.4292 23.0317 78.9986 21.6 79H10.8C9.36827 78.9986 7.99559 78.4292 6.9832 77.4168C5.97082 76.4044 5.40143 75.0317 5.4 73.6V54.7C3.96827 54.6986 2.59559 54.1292 1.5832 53.1168C0.570816 52.1044 0.00142959 50.7317 0 49.3V33.1C0.00214438 30.9524 0.856224 28.8934 2.3748 27.3748C3.89338 25.8562 5.9524 25.0021 8.1 25H25.056C26.1892 24.9993 27.2939 25.3555 28.2132 26.018C29.1326 26.6805 29.82 27.6157 30.1779 28.6909L34.344 41.2H54C56.1476 41.2021 58.2066 42.0562 59.7252 43.5748C61.2438 45.0934 62.0979 47.1524 62.1 49.3V60.1C62.0986 61.5317 61.5292 62.9044 60.5168 63.9168C59.5044 64.9292 58.1317 65.4986 56.7 65.5V73.6C56.6986 75.0317 56.1292 76.4044 55.1168 77.4168C54.1044 78.4292 52.7317 78.9986 51.3 79Z" fill="#0B582A"/>
<path d="M72.9001 79H67.5001V49.3H75.6001V33.1C75.5994 32.3841 75.3147 31.6978 74.8085 31.1916C74.3023 30.6854 73.616 30.4007 72.9001 30.4H62.1001V25H72.9001C75.0477 25.0021 77.1067 25.8562 78.6253 27.3748C80.1439 28.8934 80.998 30.9524 81.0001 33.1V49.3C80.9987 50.7317 80.4293 52.1044 79.4169 53.1168C78.4045 54.1292 77.0318 54.6986 75.6001 54.7H72.9001V79Z" fill="#0B582A"/>
<path d="M16.1999 22.3C14.0639 22.3 11.9758 21.6665 10.1997 20.4798C8.4237 19.2931 7.03943 17.6064 6.22201 15.6329C5.40458 13.6595 5.19071 11.488 5.60743 9.39298C6.02415 7.29799 7.05275 5.37361 8.56315 3.8632C10.0736 2.3528 11.9979 1.3242 14.0929 0.907475C16.1879 0.490755 18.3594 0.704631 20.3329 1.52206C22.3063 2.33948 23.9931 3.72375 25.1798 5.4998C26.3665 7.27585 26.9999 9.36392 26.9999 11.5C26.9963 14.3632 25.8573 17.1081 23.8327 19.1328C21.8081 21.1574 19.0631 22.2964 16.1999 22.3V22.3ZM16.1999 6.09996C15.1319 6.09996 14.0879 6.41666 13.1998 7.01002C12.3118 7.60338 11.6197 8.44674 11.211 9.43347C10.8022 10.4202 10.6953 11.5059 10.9037 12.5534C11.112 13.6009 11.6263 14.5631 12.3815 15.3183C13.1367 16.0735 14.0989 16.5878 15.1464 16.7962C16.1939 17.0046 17.2797 16.8976 18.2664 16.4889C19.2531 16.0802 20.0965 15.3881 20.6898 14.5C21.2832 13.612 21.5999 12.568 21.5999 11.5C21.5985 10.0682 21.0291 8.69555 20.0167 7.68316C19.0043 6.67077 17.6316 6.10139 16.1999 6.09996V6.09996Z" fill="#0B582A"/>
<path d="M64.8 22.3C62.664 22.3 60.5759 21.6665 58.7998 20.4798C57.0238 19.2931 55.6395 17.6064 54.8221 15.6329C54.0047 13.6595 53.7908 11.488 54.2075 9.39298C54.6242 7.29799 55.6528 5.37361 57.1633 3.8632C58.6737 2.3528 60.598 1.3242 62.693 0.907475C64.788 0.490755 66.9595 0.704631 68.933 1.52206C70.9064 2.33948 72.5932 3.72375 73.7799 5.4998C74.9666 7.27585 75.6 9.36392 75.6 11.5C75.5964 14.3632 74.4574 17.1081 72.4328 19.1328C70.4082 21.1574 67.6632 22.2964 64.8 22.3V22.3ZM64.8 6.09996C63.732 6.09996 62.688 6.41666 61.7999 7.01002C60.9119 7.60338 60.2198 8.44674 59.8111 9.43347C59.4023 10.4202 59.2954 11.5059 59.5038 12.5534C59.7121 13.6009 60.2264 14.5631 60.9816 15.3183C61.7368 16.0735 62.699 16.5878 63.7465 16.7962C64.794 17.0046 65.8798 16.8976 66.8665 16.4889C67.8532 16.0802 68.6966 15.3881 69.2899 14.5C69.8833 13.612 70.2 12.568 70.2 11.5C70.1986 10.0682 69.6292 8.69555 68.6168 7.68316C67.6044 6.67077 66.2317 6.10139 64.8 6.09996V6.09996Z" fill="#0B582A"/>
<path d="M47.2501 38.5001C45.381 38.5001 43.554 37.9459 41.9999 36.9075C40.4459 35.8691 39.2346 34.3932 38.5194 32.6665C37.8041 30.9397 37.617 29.0396 37.9816 27.2065C38.3463 25.3734 39.2463 23.6896 40.5679 22.3679C41.8895 21.0463 43.5733 20.1463 45.4065 19.7817C47.2396 19.4171 49.1397 19.6042 50.8664 20.3194C52.5932 21.0347 54.0691 22.2459 55.1074 23.8C56.1458 25.354 56.7001 27.1811 56.7001 29.0501C56.6972 31.5555 55.7007 33.9575 53.9291 35.7291C52.1575 37.5007 49.7555 38.4972 47.2501 38.5001V38.5001ZM47.2501 25.0001C46.449 25.0001 45.666 25.2376 45 25.6827C44.334 26.1277 43.8149 26.7602 43.5083 27.5002C43.2018 28.2403 43.1216 29.0546 43.2779 29.8402C43.4341 30.6258 43.8199 31.3475 44.3863 31.9139C44.9527 32.4803 45.6743 32.866 46.4599 33.0223C47.2456 33.1786 48.0599 33.0984 48.7999 32.7918C49.54 32.4853 50.1725 31.9662 50.6175 31.3002C51.0625 30.6341 51.3001 29.8511 51.3001 29.0501C51.2986 27.9764 50.8715 26.9471 50.1123 26.1879C49.353 25.4287 48.3237 25.0015 47.2501 25.0001V25.0001Z" fill="#0B582A"/>
</svg>
