<svg width="128" height="48" viewBox="0 0 128 48" fill="none" xmlns="http://www.w3.org/2000/svg">
<path d="M20.6854 22.0807C20.6733 21.9115 20.7881 21.7604 21.0299 21.6275C21.2716 21.4824 21.7369 21.4099 22.4259 21.4099C23.1148 21.4099 23.7312 21.561 24.2751 21.8631C25.9431 21.1621 27.4419 19.9051 28.7714 18.0921C30.0889 16.2912 30.7234 14.6474 30.6751 13.1607C30.6388 12.1938 30.2581 11.3658 29.5329 10.6769C26.5595 12.6833 23.4895 15.989 20.3228 20.594C15.4156 27.4593 11.1429 31.5809 7.5048 32.9588C6.38073 33.3939 5.41379 33.6115 4.60398 33.6115C3.78208 33.6115 3.1294 33.551 2.64593 33.4302C2.16246 33.2972 1.75755 33.1159 1.43121 32.8863C0.814789 32.439 0.506577 31.8528 0.506577 31.1276C0.506577 30.3783 0.875223 29.9008 1.61251 29.6954C1.81799 29.647 2.01742 29.6228 2.21081 29.6228C2.4042 29.6228 2.60363 29.6893 2.8091 29.8223C3.00249 29.9552 3.09918 30.1546 3.09918 30.4206C3.09918 30.6865 3.00249 30.9101 2.8091 31.0914C2.60363 31.2727 2.33772 31.3633 2.01138 31.3633C1.68503 31.3633 1.42517 31.2968 1.23178 31.1639V31.2727C1.23178 31.8166 1.4856 32.2577 1.99325 32.5962C2.50089 32.9346 3.11731 33.1038 3.84252 33.1038C4.55563 33.1038 5.15393 33.0494 5.6374 32.9406C6.12087 32.8319 6.62247 32.6324 7.1422 32.3423C7.66193 32.0402 8.21187 31.6292 8.79204 31.1095C9.3722 30.5777 10.0249 29.8948 10.7501 29.0608C11.4753 28.2268 12.2972 27.2176 13.2158 26.0331L16.3523 21.8269C18.9389 18.2009 21.8638 15.155 25.1273 12.6893C26.8678 11.3719 28.1127 10.5258 28.8621 10.1511C27.3996 9.17207 25.2421 8.68256 22.3896 8.68256C19.7305 8.68256 17.1319 9.26876 14.5937 10.4412C12.2851 11.5169 10.4117 12.8948 8.97334 14.5748C7.5471 16.2549 6.85816 17.8503 6.90651 19.3612C6.93068 20.2435 7.26911 20.9325 7.92179 21.428C8.42943 21.8148 9.03981 22.0082 9.75293 22.0082C10.4661 22.0082 11.1913 21.8148 11.9285 21.428C12.6779 21.0412 13.3971 20.5396 14.086 19.9232C14.775 19.2947 15.4216 18.5997 16.026 17.8383C16.6424 17.0647 17.1863 16.2972 17.6577 15.5357C18.6367 13.9524 19.1806 12.6954 19.2894 11.7647C19.3256 11.3537 19.4042 11.1483 19.5251 11.1483C19.6459 11.1483 19.7124 11.1966 19.7245 11.2933C19.7366 11.3779 19.7487 11.6499 19.7608 12.1091C19.7728 12.5684 19.6822 13.203 19.4888 14.0128C19.2954 14.8226 18.9993 15.6264 18.6004 16.4241C18.2136 17.2218 17.7241 17.9833 17.1319 18.7085C16.5517 19.4337 15.887 20.0743 15.1376 20.6303C13.5059 21.8631 11.6929 22.4796 9.69854 22.4796C8.86456 22.4796 8.10309 22.2016 7.41415 21.6456C6.68894 21.0533 6.30821 20.2919 6.27195 19.3612C6.24778 18.4184 6.4593 17.4757 6.90651 16.5329C7.35371 15.5901 7.97014 14.7018 8.75578 13.8678C9.5535 13.0338 10.4902 12.2663 11.5659 11.5652C12.6417 10.8642 13.7899 10.2599 15.0107 9.75223C17.5851 8.70069 20.2019 8.17491 22.861 8.17491C25.5322 8.17491 27.7199 8.7309 29.4241 9.84288C31.2129 8.93638 32.5243 8.48312 33.3583 8.48312C33.588 8.48312 33.7028 8.53147 33.7028 8.62817C33.7149 8.72486 33.6847 8.79738 33.6122 8.84573C33.5396 8.89407 33.3342 8.94846 32.9957 9.0089C32.2464 9.14185 31.2734 9.57697 30.0768 10.3143C31.4788 11.4504 32.2161 12.9069 32.2887 14.6836C32.3612 16.2307 31.7145 17.7114 30.3487 19.1255C28.9588 20.5759 27.1276 21.6335 24.8553 22.2983C25.2058 22.6609 25.3871 23.0899 25.3992 23.5855C25.4234 24.0811 25.3992 24.5283 25.3267 24.9271C25.2542 25.326 25.091 25.7672 24.8372 26.2506C24.3416 27.1934 23.3143 28.4444 21.7551 30.0036C21.0419 30.5958 20.6975 31.1881 20.7216 31.7803C20.7216 32.6626 21.3562 33.1038 22.6253 33.1038C24.0999 33.1038 25.6289 32.3242 27.2122 30.765C28.8198 29.1575 30.0164 27.1934 30.802 24.8727C30.9108 24.5101 30.9954 24.3288 31.0558 24.3288C31.2734 24.3288 31.3822 24.5947 31.3822 25.1266C31.3822 25.6463 31.2432 26.2567 30.9652 26.9577C30.6993 27.6587 30.3366 28.3356 29.8774 28.9883C29.4181 29.641 28.8862 30.2513 28.2819 30.8194C27.6776 31.3754 27.043 31.8589 26.3782 32.2698C24.9762 33.1642 23.7373 33.6115 22.6616 33.6115C21.5979 33.6115 20.8002 33.406 20.2684 32.995C19.7366 32.572 19.4586 32.0341 19.4344 31.3815C19.4102 30.7167 19.4888 30.1003 19.6701 29.5322C19.8514 28.9641 20.0931 28.4383 20.3953 27.9549C20.7096 27.4593 21.0601 27 21.4469 26.577L22.5709 25.3623C23.4291 24.6612 23.9125 24.0388 24.0213 23.4949C24.0455 23.3377 24.0576 23.1746 24.0576 23.0053C24.0576 22.8361 24.0213 22.679 23.9488 22.534C23.3928 22.6669 22.8489 22.7334 22.3171 22.7334C21.7853 22.7334 21.3864 22.6669 21.1205 22.534C20.8546 22.3889 20.7096 22.2378 20.6854 22.0807ZM23.5318 22.117C23.1934 21.9236 22.7462 21.8269 22.1902 21.8269C21.6342 21.8269 21.3562 21.8752 21.3562 21.9719C21.3562 22.2016 21.604 22.3164 22.0995 22.3164C22.5951 22.3164 23.0725 22.2499 23.5318 22.117ZM40.3022 32.016C39.5407 32.4995 38.7128 32.8983 37.8183 33.2126C36.936 33.5268 36.096 33.684 35.2983 33.684C34.5005 33.684 33.8902 33.6054 33.4671 33.4483C33.0562 33.2791 32.7177 33.0494 32.4518 32.7593C31.3157 31.5265 31.3217 29.7074 32.47 27.3022C32.9655 26.2385 33.7149 25.2716 34.7181 24.4014C35.7213 23.519 36.6036 22.8603 37.3651 22.4252C38.8397 21.5791 40.2236 21.1561 41.5169 21.1561C42.7981 21.1561 43.4689 21.5549 43.5293 22.3527C43.6139 23.6459 42.0427 25.054 38.8155 26.577C37.631 27.133 36.1383 27.7071 34.3374 28.2993C33.6242 29.4597 33.2677 30.4085 33.2677 31.1458C33.2677 31.871 33.455 32.3907 33.8297 32.705C34.2165 33.0071 34.7725 33.1582 35.4977 33.1582C36.235 33.1582 37.0267 33.0011 37.8727 32.6868C38.7309 32.3726 39.5286 31.9737 40.2659 31.4902C41.0153 31.0068 41.6921 30.481 42.2965 29.9129C42.9008 29.3448 43.4326 28.8009 43.8919 28.2812C44.3633 27.7615 44.744 27.3143 45.0341 26.9396C45.3363 26.5528 45.5418 26.3111 45.6505 26.2144L46.0313 26.5226C45.8742 26.6555 45.6324 26.9275 45.3061 27.3384C44.9918 27.7494 44.5869 28.2208 44.0914 28.7526C43.6079 29.2723 43.0459 29.8223 42.4053 30.4024C41.7767 30.9826 41.0757 31.5204 40.3022 32.016ZM34.7544 27.6648C38.4045 26.3836 40.7554 25.1084 41.807 23.8393C42.1575 23.4163 42.3327 23.0053 42.3327 22.6065C42.3327 21.9296 42.0185 21.5912 41.39 21.5912C40.278 21.5912 38.888 22.5642 37.22 24.5101C36.0597 25.8639 35.2378 26.9154 34.7544 27.6648ZM55.1145 17.1856C54.9452 17.3427 54.7519 17.4696 54.5343 17.5663C54.3167 17.6509 54.069 17.6932 53.791 17.6932C53.513 17.6932 53.2712 17.5905 53.0658 17.385C52.8724 17.1674 52.7757 16.9257 52.7757 16.6598C52.7757 16.3939 52.824 16.1582 52.9207 15.9527C53.0174 15.7473 53.1504 15.566 53.3196 15.4088C53.6701 15.0462 54.0508 14.8649 54.4618 14.8649C54.8848 14.8649 55.193 14.9797 55.3864 15.2094C55.5919 15.427 55.6946 15.6687 55.6946 15.9346C55.6946 16.2005 55.6402 16.4362 55.5315 16.6417C55.4348 16.8471 55.2958 17.0284 55.1145 17.1856ZM43.6018 32.5418C43.6018 32.9165 43.9584 33.1038 44.6715 33.1038C45.3846 33.1038 46.0555 32.9406 46.684 32.6143C47.3246 32.288 47.9652 31.8831 48.6058 31.3996C49.2584 30.904 49.8869 30.3662 50.4913 29.786L52.123 28.1543C52.6065 27.6466 53.0053 27.2115 53.3196 26.8489C53.6338 26.4742 53.8212 26.2567 53.8816 26.1962L54.2442 26.5226C54.1234 26.6435 53.8937 26.9033 53.5553 27.3022C53.2289 27.689 52.818 28.1482 52.3224 28.6801C51.8269 29.1998 51.2709 29.7497 50.6545 30.3299C50.038 30.9101 49.3914 31.4419 48.7145 31.9254C47.1553 33.0494 45.7895 33.6115 44.6171 33.6115C43.8678 33.6115 43.2695 33.4785 42.8222 33.2126C42.375 32.9346 42.1514 32.6203 42.1514 32.2698C42.1514 31.9193 42.1877 31.6051 42.2602 31.3271C42.3327 31.0491 42.4657 30.7167 42.6591 30.3299C42.8525 29.9431 43.1244 29.4899 43.4749 28.9701C43.8134 28.4504 44.2606 27.828 44.8166 27.1027C45.3605 26.3775 46.0252 25.5375 46.8109 24.5827L49.6029 21.283C49.748 21.3192 50.0441 21.3374 50.4913 21.3374H51.3434C51.6577 21.3374 51.9115 21.3253 52.1049 21.3011C48.1042 26.0754 45.856 28.7949 45.3605 29.4597C44.8528 30.1123 44.4781 30.626 44.2364 31.0007C43.8134 31.6413 43.6018 32.155 43.6018 32.5418ZM59.3388 30.2393C59.4838 30.2634 59.6651 30.2755 59.8827 30.2755C60.1123 30.2755 60.3843 30.1909 60.6985 30.0217C61.0128 29.8525 61.3331 29.6349 61.6594 29.369C61.9979 29.1031 62.3302 28.813 62.6566 28.4988C62.9829 28.1724 63.2791 27.8642 63.545 27.5741C63.823 27.272 64.0647 27 64.2702 26.7583L64.6872 26.2144L65.086 26.5226C64.941 26.6676 64.7536 26.8671 64.524 27.1209L63.7625 27.9911C62.0825 29.8041 60.7529 30.7106 59.7739 30.7106H59.4657C59.369 30.7106 59.2723 30.6986 59.1756 30.6744C58.1603 32.8863 56.0028 33.9922 52.7032 33.9922C51.2648 33.9922 50.2193 33.6477 49.5667 32.9588C49.2887 32.6566 49.1497 32.2698 49.1497 31.7984C49.1497 31.3271 49.2645 30.9282 49.4941 30.6019C49.7117 30.2634 49.9716 29.9854 50.2737 29.7679C50.8902 29.3207 51.4461 29.0971 51.9417 29.0971C52.4252 29.0971 52.6669 29.3267 52.6669 29.786C52.6306 30.1003 52.3647 30.3359 51.8692 30.4931C51.712 30.5414 51.561 30.5656 51.4159 30.5656C51.2588 30.5656 51.1138 30.5173 50.9808 30.4206C50.8358 30.3118 50.7209 30.2332 50.6363 30.1849C50.5638 30.2574 50.4732 30.342 50.3644 30.4387C50.2435 30.5354 50.1287 30.6502 50.0199 30.7832C49.754 31.1095 49.621 31.4479 49.621 31.7984C49.621 32.1369 49.7359 32.4088 49.9655 32.6143C50.1952 32.8198 50.4671 32.9769 50.7814 33.0857C51.2528 33.2549 51.7483 33.3395 52.268 33.3395C52.7757 33.3395 53.3015 33.2307 53.8454 33.0132C54.4013 32.7956 54.9453 32.433 55.4771 31.9254C56.9396 30.5354 57.7312 28.4746 57.8521 25.743C57.9246 23.9058 58.1482 22.4675 58.5229 21.428C58.535 21.3918 58.5411 21.3374 58.5411 21.2649L54.2624 26.5226C54.0206 26.8127 53.8454 27 53.7366 27.0846C53.6157 27.1692 53.5553 27.2115 53.5553 27.2115C53.4102 27.2236 53.3135 27.1874 53.2652 27.1027C53.241 27.0423 53.2954 26.9275 53.4284 26.7583C56.5467 23.0356 58.2993 20.9204 58.6861 20.4127C58.8795 19.47 59.1937 18.9986 59.6289 18.9986C59.8343 18.9986 60.0036 19.053 60.1365 19.1618C60.2815 19.2705 60.3541 19.4095 60.3541 19.5788C60.342 19.8084 60.1546 20.1347 59.792 20.5578C59.4415 20.9687 59.224 21.2346 59.1393 21.3555C59.0668 21.4643 59.0185 21.561 58.9943 21.6456C58.9701 21.7181 58.958 21.7906 58.958 21.8631V22.0807C58.946 22.407 58.9762 22.7938 59.0487 23.241L59.502 26.2506C59.7679 27.8944 59.7135 29.224 59.3388 30.2393ZM95.0732 10.9851C95.2062 10.9851 95.2727 11.2329 95.2727 11.7284C95.2727 12.2119 95.1518 12.786 94.9101 13.4508C94.6804 14.1035 94.3661 14.732 93.9673 15.3363C93.5684 15.9286 93.1031 16.4845 92.5713 17.0043C92.0394 17.5119 91.4774 17.9531 90.8852 18.3278C89.604 19.1255 88.4436 19.5244 87.4042 19.5244C86.3647 19.5244 85.5851 19.2705 85.0654 18.7629C84.5578 18.2553 84.3039 17.6388 84.3039 16.9136C84.3039 16.1763 84.4973 15.4572 84.8841 14.7561C85.283 14.0551 85.8329 13.3662 86.5339 12.6893C88.1173 11.2026 90.021 10.0846 92.2449 9.33524C93.9492 8.76716 96.161 8.48312 98.8805 8.48312C100.609 8.48312 102.277 8.65838 103.884 9.0089C105.238 9.25063 106.38 9.3715 107.311 9.3715C108.242 9.3715 109.039 9.28689 109.704 9.11768C110.381 8.93638 111.01 8.70069 111.59 8.4106C112.823 7.78209 113.705 7.05085 114.237 6.21686C114.358 6.01139 114.478 5.90865 114.599 5.90865C114.72 5.90865 114.781 5.98117 114.781 6.12621C114.781 6.27125 114.563 6.60364 114.128 7.12337C113.705 7.6431 113.137 8.13261 112.424 8.59191C111.723 9.0512 110.937 9.45006 110.067 9.78849C108.23 10.4895 106.308 10.84 104.301 10.84C103.044 10.84 101.673 10.6829 100.186 10.3687C97.8773 9.89727 96.1852 9.66158 95.1095 9.66158C94.0458 9.66158 93.1333 9.77036 92.3718 9.98792C91.6104 10.1934 90.867 10.4774 90.1418 10.84C89.4166 11.1906 88.7277 11.6015 88.075 12.0729C87.4344 12.5443 86.8724 13.0459 86.3889 13.5777C85.3374 14.738 84.8116 15.8258 84.8116 16.8411C84.8116 17.7839 85.2346 18.4305 86.0807 18.781C86.3587 18.8898 86.7092 18.9442 87.1322 18.9442C87.5553 18.9442 88.0327 18.8173 88.5645 18.5635C89.1084 18.2976 89.6523 17.9531 90.1962 17.53C90.7401 17.0949 91.2719 16.6115 91.7917 16.0796C92.3114 15.5357 92.7828 14.9858 93.2058 14.4298C94.1244 13.209 94.6744 12.2119 94.8557 11.4383C94.9282 11.1362 95.0007 10.9851 95.0732 10.9851ZM75.3839 29.8948C75.3839 30.1365 75.2872 30.348 75.0938 30.5293C74.8884 30.7106 74.6225 30.8013 74.2961 30.8013C73.9698 30.8013 73.7039 30.7409 73.4984 30.62V30.7288C73.4984 31.8891 74.3263 32.6324 75.9822 32.9588C76.4899 33.0555 77.1123 33.1038 77.8496 33.1038C78.599 33.1038 79.4572 32.9406 80.4241 32.6143C81.391 32.2759 82.3519 31.7743 83.3068 31.1095C85.3374 29.6954 87.1927 27.6648 88.8727 25.0178C89.4045 24.1838 90.0089 23.3377 90.6857 22.4796L92.9157 19.7419C94.8013 17.5663 96.6868 15.6868 98.5723 14.1035C100.204 12.7377 101.244 12.0548 101.691 12.0548C101.86 12.0548 101.945 12.1091 101.945 12.2179C101.945 12.3388 101.775 12.508 101.437 12.7256C101.098 12.9431 100.76 13.1728 100.422 13.4145C100.095 13.6562 99.781 13.9161 99.4788 14.1941C99.1888 14.4721 98.8987 14.7864 98.6086 15.1369C98.3185 15.4753 97.9982 15.8863 97.6477 16.3697C97.2972 16.8532 96.9044 17.4273 96.4692 18.0921L94.9463 20.4127C89.2414 29.2119 83.4156 33.6115 77.4689 33.6115C76.1756 33.6115 75.0878 33.3455 74.2055 32.8137C73.2506 32.2336 72.7732 31.4902 72.7732 30.5837C72.7732 30.1003 72.9122 29.7558 73.1902 29.5503C73.6011 29.224 73.9637 29.0608 74.278 29.0608C75.0153 29.0608 75.3839 29.3388 75.3839 29.8948ZM96.6324 32.5055C96.6324 32.9406 96.9225 33.1582 97.5027 33.1582C98.3125 33.1582 99.1827 32.85 100.113 32.2336C102.12 30.8919 104.211 28.8855 106.386 26.2144C106.386 26.2144 107.758 24.5645 110.502 21.2649C111.082 21.3374 111.608 21.3736 112.079 21.3736C112.551 21.3736 112.943 21.3555 113.258 21.3192L111.481 23.3679L105.063 31.182C104.64 31.7018 104.428 32.1248 104.428 32.4511C104.428 32.8863 104.718 33.1038 105.299 33.1038C105.879 33.1038 106.477 32.9527 107.093 32.6506C107.722 32.3363 108.344 31.9435 108.961 31.4721C109.589 31.0007 110.2 30.487 110.792 29.931C111.384 29.363 111.922 28.8251 112.406 28.3175L114.309 26.2144L114.672 26.5226L113.965 27.3203C113.614 27.7192 113.185 28.1785 112.678 28.6982L110.991 30.348C108.683 32.5236 106.767 33.6115 105.244 33.6115C104.749 33.6115 104.338 33.4785 104.011 33.2126C103.697 32.9346 103.528 32.566 103.504 32.1067C103.48 31.2243 103.788 30.2272 104.428 29.1152C101.648 32.1127 99.2915 33.6115 97.3576 33.6115C96.2698 33.6115 95.5748 33.2247 95.2727 32.4511C95.188 32.2336 95.1397 31.9556 95.1276 31.6171C95.1155 31.2787 95.2001 30.8738 95.3814 30.4024C95.5507 29.931 95.8105 29.4234 96.161 28.8795C96.5115 28.3235 96.9406 27.7252 97.4483 27.0846L100.712 23.1323C101.219 22.5037 101.757 21.8813 102.325 21.2649C102.797 21.3374 103.177 21.3736 103.467 21.3736H104.084C104.604 21.3736 104.936 21.3555 105.081 21.3192C103.667 22.8663 102.676 23.9844 102.108 24.6733L98.4998 29.0064C97.2307 30.481 96.6082 31.6474 96.6324 32.5055ZM117.337 32.161C117.337 32.717 117.573 32.995 118.044 32.995C118.528 32.995 119.053 32.85 119.621 32.5599C120.202 32.2698 120.788 31.9012 121.38 31.454C121.984 31.0068 122.577 30.5112 123.157 29.9673L124.734 28.39C125.218 27.8944 125.635 27.4472 125.985 27.0484L126.728 26.2144L127.091 26.5226C126.861 26.7281 126.553 27.0484 126.166 27.4835L124.861 28.9339C121.912 32.0523 119.374 33.6115 117.246 33.6115C116.557 33.6115 116.001 33.4422 115.578 33.1038C115.167 32.7654 114.962 32.3121 114.962 31.7441C114.962 29.9431 117.585 27.284 122.83 23.7668C120.268 23.3438 118.497 22.9147 117.518 22.4796C116.721 24.1234 115.494 25.7974 113.838 27.5016C113.451 27.9005 113.215 28.118 113.131 28.1543C113.034 28.1906 112.974 28.2208 112.95 28.2449C112.925 28.257 112.907 28.2208 112.895 28.1362C112.883 28.0516 112.883 27.9911 112.895 27.9549C112.907 27.9065 112.931 27.8582 112.968 27.8098C113.536 27.1692 114.061 26.5528 114.545 25.9605C115.669 24.5585 116.497 23.3136 117.029 22.2257C116.594 21.9478 116.346 21.6516 116.285 21.3374C116.225 21.0231 116.225 20.733 116.285 20.4671C116.358 20.1891 116.467 19.9414 116.612 19.7238C116.926 19.2524 117.289 19.0167 117.7 19.0167C118.461 19.0167 118.842 19.2947 118.842 19.8507C118.842 20.1287 118.787 20.3644 118.679 20.5578L118.352 21.1198C118.135 21.3978 118.026 21.7181 118.026 22.0807C118.026 22.2983 118.485 22.5037 119.404 22.6971C120.335 22.8905 120.993 23.0235 121.38 23.096C122.226 23.2531 122.897 23.3438 123.392 23.3679C123.731 23.38 123.9 23.4707 123.9 23.6399C123.9 23.7487 123.701 23.9602 123.302 24.2744C122.915 24.5887 122.486 24.9694 122.015 25.4166C121.543 25.8639 121.084 26.3352 120.637 26.8308C120.189 27.3143 119.766 27.8098 119.368 28.3175C118.969 28.8251 118.618 29.3146 118.316 29.786C117.663 30.8013 117.337 31.593 117.337 32.161Z" fill="white"/>
<path d="M20.6854 20.9591C20.6733 20.7899 20.7881 20.6388 21.0299 20.5059C21.2716 20.3608 21.7369 20.2883 22.4259 20.2883C23.1148 20.2883 23.7312 20.4394 24.2751 20.7416C25.9431 20.0405 27.4419 18.7835 28.7714 16.9705C30.0889 15.1696 30.7234 13.5258 30.6751 12.0391C30.6388 11.0722 30.2581 10.2442 29.5329 9.55529C26.5595 11.5617 23.4895 14.8674 20.3228 19.4725C15.4156 26.3377 11.1429 30.4593 7.5048 31.8372C6.38073 32.2723 5.41379 32.4899 4.60398 32.4899C3.78208 32.4899 3.1294 32.4294 2.64593 32.3086C2.16246 32.1756 1.75755 31.9943 1.43121 31.7647C0.814789 31.3175 0.506577 30.7313 0.506577 30.006C0.506577 29.2567 0.875223 28.7792 1.61251 28.5738C1.81799 28.5254 2.01742 28.5012 2.21081 28.5012C2.4042 28.5012 2.60363 28.5677 2.8091 28.7007C3.00249 28.8336 3.09918 29.0331 3.09918 29.299C3.09918 29.5649 3.00249 29.7885 2.8091 29.9698C2.60363 30.1511 2.33772 30.2417 2.01138 30.2417C1.68503 30.2417 1.42517 30.1753 1.23178 30.0423V30.1511C1.23178 30.695 1.4856 31.1362 1.99325 31.4746C2.50089 31.813 3.11731 31.9822 3.84252 31.9822C4.55563 31.9822 5.15393 31.9278 5.6374 31.8191C6.12087 31.7103 6.62247 31.5108 7.1422 31.2208C7.66193 30.9186 8.21187 30.5076 8.79204 29.9879C9.3722 29.4561 10.0249 28.7732 10.7501 27.9392C11.4753 27.1052 12.2972 26.096 13.2158 24.9115L16.3523 20.7053C18.9389 17.0793 21.8638 14.0334 25.1273 11.5677C26.8678 10.2503 28.1127 9.4042 28.8621 9.02951C27.3996 8.05049 25.2421 7.56097 22.3896 7.56097C19.7305 7.56097 17.1319 8.14718 14.5937 9.31959C12.2851 10.3953 10.4117 11.7732 8.97334 13.4533C7.5471 15.1333 6.85816 16.7288 6.90651 18.2396C6.93068 19.1219 7.26911 19.8109 7.92179 20.3064C8.42943 20.6932 9.03981 20.8866 9.75293 20.8866C10.4661 20.8866 11.1913 20.6932 11.9285 20.3064C12.6779 19.9197 13.3971 19.4181 14.086 18.8016C14.775 18.1731 15.4216 17.4781 16.026 16.7167C16.6424 15.9431 17.1863 15.1756 17.6577 14.4142C18.6367 12.8308 19.1806 11.5738 19.2894 10.6431C19.3256 10.2321 19.4042 10.0267 19.5251 10.0267C19.6459 10.0267 19.7124 10.075 19.7245 10.1717C19.7366 10.2563 19.7487 10.5283 19.7608 10.9876C19.7728 11.4469 19.6822 12.0814 19.4888 12.8912C19.2954 13.701 18.9993 14.5048 18.6004 15.3025C18.2136 16.1003 17.7241 16.8617 17.1319 17.5869C16.5517 18.3121 15.887 18.9527 15.1376 19.5087C13.5059 20.7416 11.6929 21.358 9.69854 21.358C8.86456 21.358 8.10309 21.08 7.41415 20.524C6.68894 19.9318 6.30821 19.1703 6.27195 18.2396C6.24778 17.2968 6.4593 16.3541 6.90651 15.4113C7.35371 14.4685 7.97014 13.5802 8.75578 12.7462C9.5535 11.9122 10.4902 11.1447 11.5659 10.4437C12.6417 9.74263 13.7899 9.13829 15.0107 8.63065C17.5851 7.5791 20.2019 7.05333 22.861 7.05333C25.5322 7.05333 27.7199 7.60932 29.4241 8.7213C31.2129 7.8148 32.5243 7.36154 33.3583 7.36154C33.588 7.36154 33.7028 7.40989 33.7028 7.50658C33.7149 7.60328 33.6847 7.6758 33.6122 7.72414C33.5396 7.77249 33.3342 7.82688 32.9957 7.88732C32.2464 8.02027 31.2734 8.45539 30.0768 9.19268C31.4788 10.3288 32.2161 11.7853 32.2887 13.562C32.3612 15.1091 31.7145 16.5898 30.3487 18.0039C28.9588 19.4543 27.1276 20.5119 24.8553 21.1767C25.2058 21.5393 25.3871 21.9684 25.3992 22.4639C25.4234 22.9595 25.3992 23.4067 25.3267 23.8056C25.2542 24.2044 25.091 24.6456 24.8372 25.129C24.3416 26.0718 23.3143 27.3228 21.7551 28.882C21.0419 29.4742 20.6975 30.0665 20.7216 30.6587C20.7216 31.5411 21.3562 31.9822 22.6253 31.9822C24.0999 31.9822 25.6289 31.2026 27.2122 29.6434C28.8198 28.0359 30.0164 26.0718 30.802 23.7512C30.9108 23.3886 30.9954 23.2073 31.0558 23.2073C31.2734 23.2073 31.3822 23.4732 31.3822 24.005C31.3822 24.5247 31.2432 25.1351 30.9652 25.8361C30.6993 26.5372 30.3366 27.214 29.8774 27.8667C29.4181 28.5194 28.8862 29.1298 28.2819 29.6978C27.6776 30.2538 27.043 30.7373 26.3782 31.1482C24.9762 32.0427 23.7373 32.4899 22.6616 32.4899C21.5979 32.4899 20.8002 32.2844 20.2684 31.8734C19.7366 31.4504 19.4586 30.9126 19.4344 30.2599C19.4102 29.5951 19.4888 28.9787 19.6701 28.4106C19.8514 27.8425 20.0931 27.3167 20.3953 26.8333C20.7096 26.3377 21.0601 25.8784 21.4469 25.4554L22.5709 24.2407C23.4291 23.5396 23.9125 22.9172 24.0213 22.3733C24.0455 22.2161 24.0576 22.053 24.0576 21.8838C24.0576 21.7145 24.0213 21.5574 23.9488 21.4124C23.3928 21.5453 22.8489 21.6118 22.3171 21.6118C21.7853 21.6118 21.3864 21.5453 21.1205 21.4124C20.8546 21.2673 20.7096 21.1163 20.6854 20.9591ZM23.5318 20.9954C23.1934 20.802 22.7462 20.7053 22.1902 20.7053C21.6342 20.7053 21.3562 20.7536 21.3562 20.8503C21.3562 21.08 21.604 21.1948 22.0995 21.1948C22.5951 21.1948 23.0725 21.1283 23.5318 20.9954ZM40.3022 30.8944C39.5407 31.3779 38.7128 31.7768 37.8183 32.091C36.936 32.4053 36.096 32.5624 35.2983 32.5624C34.5005 32.5624 33.8902 32.4838 33.4671 32.3267C33.0562 32.1575 32.7177 31.9278 32.4518 31.6378C31.3157 30.4049 31.3217 28.5859 32.47 26.1806C32.9655 25.117 33.7149 24.15 34.7181 23.2798C35.7213 22.3974 36.6036 21.7387 37.3651 21.3036C38.8397 20.4575 40.2236 20.0345 41.5169 20.0345C42.7981 20.0345 43.4689 20.4334 43.5293 21.2311C43.6139 22.5244 42.0427 23.9325 38.8155 25.4554C37.631 26.0114 36.1383 26.5855 34.3374 27.1778C33.6242 28.3381 33.2677 29.2869 33.2677 30.0242C33.2677 30.7494 33.455 31.2691 33.8297 31.5834C34.2165 31.8855 34.7725 32.0366 35.4977 32.0366C36.235 32.0366 37.0267 31.8795 37.8727 31.5652C38.7309 31.251 39.5286 30.8521 40.2659 30.3687C41.0153 29.8852 41.6921 29.3594 42.2965 28.7913C42.9008 28.2233 43.4326 27.6794 43.8919 27.1596C44.3633 26.6399 44.744 26.1927 45.0341 25.818C45.3363 25.4312 45.5418 25.1895 45.6505 25.0928L46.0313 25.401C45.8742 25.534 45.6324 25.8059 45.3061 26.2169C44.9918 26.6278 44.5869 27.0992 44.0914 27.631C43.6079 28.1507 43.0459 28.7007 42.4053 29.2808C41.7767 29.861 41.0757 30.3989 40.3022 30.8944ZM34.7544 26.5432C38.4045 25.262 40.7554 23.9869 41.807 22.7177C42.1575 22.2947 42.3327 21.8838 42.3327 21.4849C42.3327 20.808 42.0185 20.4696 41.39 20.4696C40.278 20.4696 38.888 21.4426 37.22 23.3886C36.0597 24.7423 35.2378 25.7938 34.7544 26.5432ZM55.1145 16.064C54.9452 16.2211 54.7519 16.348 54.5343 16.4447C54.3167 16.5293 54.069 16.5716 53.791 16.5716C53.513 16.5716 53.2712 16.4689 53.0658 16.2634C52.8724 16.0459 52.7757 15.8041 52.7757 15.5382C52.7757 15.2723 52.824 15.0366 52.9207 14.8311C53.0174 14.6257 53.1504 14.4444 53.3196 14.2872C53.6701 13.9246 54.0508 13.7433 54.4618 13.7433C54.8848 13.7433 55.193 13.8582 55.3864 14.0878C55.5919 14.3054 55.6946 14.5471 55.6946 14.813C55.6946 15.0789 55.6402 15.3146 55.5315 15.5201C55.4348 15.7256 55.2958 15.9069 55.1145 16.064ZM43.6018 31.4202C43.6018 31.7949 43.9584 31.9822 44.6715 31.9822C45.3846 31.9822 46.0555 31.8191 46.684 31.4927C47.3246 31.1664 47.9652 30.7615 48.6058 30.278C49.2584 29.7824 49.8869 29.2446 50.4913 28.6644L52.123 27.0327C52.6065 26.5251 53.0053 26.0899 53.3196 25.7273C53.6338 25.3527 53.8212 25.1351 53.8816 25.0747L54.2442 25.401C54.1234 25.5219 53.8937 25.7817 53.5553 26.1806C53.2289 26.5674 52.818 27.0267 52.3224 27.5585C51.8269 28.0782 51.2709 28.6282 50.6545 29.2083C50.038 29.7885 49.3914 30.3203 48.7145 30.8038C47.1553 31.9278 45.7895 32.4899 44.6171 32.4899C43.8678 32.4899 43.2695 32.3569 42.8222 32.091C42.375 31.813 42.1514 31.4988 42.1514 31.1482C42.1514 30.7977 42.1877 30.4835 42.2602 30.2055C42.3327 29.9275 42.4657 29.5951 42.6591 29.2083C42.8525 28.8215 43.1244 28.3683 43.4749 27.8486C43.8134 27.3288 44.2606 26.7064 44.8166 25.9812C45.3605 25.256 46.0252 24.4159 46.8109 23.4611L49.6029 20.1614C49.748 20.1977 50.0441 20.2158 50.4913 20.2158H51.3434C51.6577 20.2158 51.9115 20.2037 52.1049 20.1795C48.1042 24.9538 45.856 27.6733 45.3605 28.3381C44.8528 28.9908 44.4781 29.5044 44.2364 29.8791C43.8134 30.5197 43.6018 31.0334 43.6018 31.4202ZM59.3388 29.1177C59.4838 29.1418 59.6651 29.1539 59.8827 29.1539C60.1123 29.1539 60.3843 29.0693 60.6985 28.9001C61.0128 28.7309 61.3331 28.5133 61.6594 28.2474C61.9979 27.9815 62.3302 27.6914 62.6566 27.3772C62.9829 27.0508 63.2791 26.7426 63.545 26.4525C63.823 26.1504 64.0647 25.8784 64.2702 25.6367L64.6872 25.0928L65.086 25.401C64.941 25.546 64.7536 25.7455 64.524 25.9993L63.7625 26.8695C62.0825 28.6826 60.7529 29.5891 59.7739 29.5891H59.4657C59.369 29.5891 59.2723 29.577 59.1756 29.5528C58.1603 31.7647 56.0028 32.8706 52.7032 32.8706C51.2648 32.8706 50.2193 32.5261 49.5667 31.8372C49.2887 31.535 49.1497 31.1482 49.1497 30.6769C49.1497 30.2055 49.2645 29.8066 49.4941 29.4803C49.7117 29.1418 49.9716 28.8639 50.2737 28.6463C50.8902 28.1991 51.4461 27.9755 51.9417 27.9755C52.4252 27.9755 52.6669 28.2051 52.6669 28.6644C52.6306 28.9787 52.3647 29.2144 51.8692 29.3715C51.712 29.4198 51.561 29.444 51.4159 29.444C51.2588 29.444 51.1138 29.3957 50.9808 29.299C50.8358 29.1902 50.7209 29.1116 50.6363 29.0633C50.5638 29.1358 50.4732 29.2204 50.3644 29.3171C50.2435 29.4138 50.1287 29.5286 50.0199 29.6616C49.754 29.9879 49.621 30.3263 49.621 30.6769C49.621 31.0153 49.7359 31.2872 49.9655 31.4927C50.1952 31.6982 50.4671 31.8553 50.7814 31.9641C51.2528 32.1333 51.7483 32.2179 52.268 32.2179C52.7757 32.2179 53.3015 32.1091 53.8454 31.8916C54.4013 31.674 54.9453 31.3114 55.4771 30.8038C56.9396 29.4138 57.7312 27.353 57.8521 24.6214C57.9246 22.7842 58.1482 21.3459 58.5229 20.3064C58.535 20.2702 58.5411 20.2158 58.5411 20.1433L54.2624 25.401C54.0206 25.6911 53.8454 25.8784 53.7366 25.963C53.6157 26.0476 53.5553 26.0899 53.5553 26.0899C53.4102 26.102 53.3135 26.0658 53.2652 25.9812C53.241 25.9207 53.2954 25.8059 53.4284 25.6367C56.5467 21.914 58.2993 19.7988 58.6861 19.2912C58.8795 18.3484 59.1937 17.877 59.6289 17.877C59.8343 17.877 60.0036 17.9314 60.1365 18.0402C60.2815 18.149 60.3541 18.288 60.3541 18.4572C60.342 18.6868 60.1546 19.0132 59.792 19.4362C59.4415 19.8471 59.224 20.1131 59.1393 20.2339C59.0668 20.3427 59.0185 20.4394 58.9943 20.524C58.9701 20.5965 58.958 20.669 58.958 20.7416V20.9591C58.946 21.2855 58.9762 21.6722 59.0487 22.1195L59.502 25.129C59.7679 26.7728 59.7135 28.1024 59.3388 29.1177ZM95.0732 9.8635C95.2062 9.8635 95.2727 10.1113 95.2727 10.6068C95.2727 11.0903 95.1518 11.6644 94.9101 12.3292C94.6804 12.9819 94.3661 13.6104 93.9673 14.2147C93.5684 14.807 93.1031 15.363 92.5713 15.8827C92.0394 16.3903 91.4774 16.8315 90.8852 17.2062C89.604 18.0039 88.4436 18.4028 87.4042 18.4028C86.3647 18.4028 85.5851 18.149 85.0654 17.6413C84.5578 17.1337 84.3039 16.5172 84.3039 15.792C84.3039 15.0548 84.4973 14.3356 84.8841 13.6346C85.283 12.9335 85.8329 12.2446 86.5339 11.5677C88.1173 10.0811 90.021 8.96304 92.2449 8.21366C93.9492 7.64558 96.161 7.36154 98.8805 7.36154C100.609 7.36154 102.277 7.5368 103.884 7.88732C105.238 8.12905 106.38 8.24992 107.311 8.24992C108.242 8.24992 109.039 8.16531 109.704 7.9961C110.381 7.8148 111.01 7.5791 111.59 7.28902C112.823 6.66051 113.705 5.92926 114.237 5.09528C114.358 4.8898 114.478 4.78707 114.599 4.78707C114.72 4.78707 114.781 4.85959 114.781 5.00463C114.781 5.14967 114.563 5.48205 114.128 6.00178C113.705 6.52151 113.137 7.01103 112.424 7.47032C111.723 7.92962 110.937 8.32848 110.067 8.66691C108.23 9.36794 106.308 9.71846 104.301 9.71846C103.044 9.71846 101.673 9.56133 100.186 9.24707C97.8773 8.77569 96.1852 8.54 95.1095 8.54C94.0458 8.54 93.1333 8.64878 92.3718 8.86634C91.6104 9.07182 90.867 9.35585 90.1418 9.71846C89.4166 10.069 88.7277 10.4799 88.075 10.9513C87.4344 11.4227 86.8724 11.9243 86.3889 12.4561C85.3374 13.6164 84.8116 14.7042 84.8116 15.7195C84.8116 16.6623 85.2346 17.3089 86.0807 17.6594C86.3587 17.7682 86.7092 17.8226 87.1322 17.8226C87.5553 17.8226 88.0327 17.6957 88.5645 17.4419C89.1084 17.176 89.6523 16.8315 90.1962 16.4085C90.7401 15.9733 91.2719 15.4899 91.7917 14.9581C92.3114 14.4142 92.7828 13.8642 93.2058 13.3082C94.1244 12.0875 94.6744 11.0903 94.8557 10.3168C94.9282 10.0146 95.0007 9.8635 95.0732 9.8635ZM75.3839 28.7732C75.3839 29.0149 75.2872 29.2265 75.0938 29.4078C74.8884 29.5891 74.6225 29.6797 74.2961 29.6797C73.9698 29.6797 73.7039 29.6193 73.4984 29.4984V29.6072C73.4984 30.7675 74.3263 31.5108 75.9822 31.8372C76.4899 31.9339 77.1123 31.9822 77.8496 31.9822C78.599 31.9822 79.4572 31.8191 80.4241 31.4927C81.391 31.1543 82.3519 30.6527 83.3068 29.9879C85.3374 28.5738 87.1927 26.5432 88.8727 23.8962C89.4045 23.0622 90.0089 22.2161 90.6857 21.358L92.9157 18.6203C94.8013 16.4447 96.6868 14.5652 98.5723 12.9819C100.204 11.6161 101.244 10.9332 101.691 10.9332C101.86 10.9332 101.945 10.9876 101.945 11.0963C101.945 11.2172 101.775 11.3864 101.437 11.604C101.098 11.8215 100.76 12.0512 100.422 12.2929C100.095 12.5347 99.781 12.7945 99.4788 13.0725C99.1888 13.3505 98.8987 13.6648 98.6086 14.0153C98.3185 14.3537 97.9982 14.7647 97.6477 15.2481C97.2972 15.7316 96.9044 16.3057 96.4692 16.9705L94.9463 19.2912C89.2414 28.0903 83.4156 32.4899 77.4689 32.4899C76.1756 32.4899 75.0878 32.224 74.2055 31.6921C73.2506 31.112 72.7732 30.3687 72.7732 29.4621C72.7732 28.9787 72.9122 28.6342 73.1902 28.4287C73.6011 28.1024 73.9637 27.9392 74.278 27.9392C75.0153 27.9392 75.3839 28.2172 75.3839 28.7732ZM96.6324 31.3839C96.6324 31.8191 96.9225 32.0366 97.5027 32.0366C98.3125 32.0366 99.1827 31.7284 100.113 31.112C102.12 29.7704 104.211 27.764 106.386 25.0928C106.386 25.0928 107.758 23.4429 110.502 20.1433C111.082 20.2158 111.608 20.2521 112.079 20.2521C112.551 20.2521 112.943 20.2339 113.258 20.1977L111.481 22.2464L105.063 30.0604C104.64 30.5802 104.428 31.0032 104.428 31.3295C104.428 31.7647 104.718 31.9822 105.299 31.9822C105.879 31.9822 106.477 31.8311 107.093 31.529C107.722 31.2147 108.344 30.8219 108.961 30.3505C109.589 29.8791 110.2 29.3655 110.792 28.8095C111.384 28.2414 111.922 27.7035 112.406 27.1959L114.309 25.0928L114.672 25.401L113.965 26.1987C113.614 26.5976 113.185 27.0569 112.678 27.5766L110.991 29.2265C108.683 31.4021 106.767 32.4899 105.244 32.4899C104.749 32.4899 104.338 32.3569 104.011 32.091C103.697 31.813 103.528 31.4444 103.504 30.9851C103.48 30.1027 103.788 29.1056 104.428 27.9936C101.648 30.9911 99.2915 32.4899 97.3576 32.4899C96.2698 32.4899 95.5748 32.1031 95.2727 31.3295C95.188 31.112 95.1397 30.834 95.1276 30.4956C95.1155 30.1571 95.2001 29.7522 95.3814 29.2808C95.5507 28.8095 95.8105 28.3018 96.161 27.7579C96.5115 27.2019 96.9406 26.6036 97.4483 25.963L100.712 22.0107C101.219 21.3822 101.757 20.7597 102.325 20.1433C102.797 20.2158 103.177 20.2521 103.467 20.2521H104.084C104.604 20.2521 104.936 20.2339 105.081 20.1977C103.667 21.7448 102.676 22.8628 102.108 23.5517L98.4998 27.8848C97.2307 29.3594 96.6082 30.5258 96.6324 31.3839ZM117.337 31.0395C117.337 31.5955 117.573 31.8734 118.044 31.8734C118.528 31.8734 119.053 31.7284 119.621 31.4383C120.202 31.1482 120.788 30.7796 121.38 30.3324C121.984 29.8852 122.577 29.3896 123.157 28.8457L124.734 27.2684C125.218 26.7728 125.635 26.3256 125.985 25.9268L126.728 25.0928L127.091 25.401C126.861 25.6065 126.553 25.9268 126.166 26.3619L124.861 27.8123C121.912 30.9307 119.374 32.4899 117.246 32.4899C116.557 32.4899 116.001 32.3207 115.578 31.9822C115.167 31.6438 114.962 31.1905 114.962 30.6225C114.962 28.8215 117.585 26.1625 122.83 22.6452C120.268 22.2222 118.497 21.7931 117.518 21.358C116.721 23.0018 115.494 24.6758 113.838 26.38C113.451 26.7789 113.215 26.9965 113.131 27.0327C113.034 27.069 112.974 27.0992 112.95 27.1234C112.925 27.1354 112.907 27.0992 112.895 27.0146C112.883 26.93 112.883 26.8695 112.895 26.8333C112.907 26.7849 112.931 26.7366 112.968 26.6882C113.536 26.0476 114.061 25.4312 114.545 24.839C115.669 23.4369 116.497 22.192 117.029 21.1042C116.594 20.8262 116.346 20.53 116.285 20.2158C116.225 19.9015 116.225 19.6115 116.285 19.3455C116.358 19.0675 116.467 18.8198 116.612 18.6022C116.926 18.1308 117.289 17.8951 117.7 17.8951C118.461 17.8951 118.842 18.1731 118.842 18.7291C118.842 19.0071 118.787 19.2428 118.679 19.4362L118.352 19.9982C118.135 20.2762 118.026 20.5965 118.026 20.9591C118.026 21.1767 118.485 21.3822 119.404 21.5755C120.335 21.7689 120.993 21.9019 121.38 21.9744C122.226 22.1315 122.897 22.2222 123.392 22.2464C123.731 22.2584 123.9 22.3491 123.9 22.5183C123.9 22.6271 123.701 22.8386 123.302 23.1529C122.915 23.4671 122.486 23.8479 122.015 24.2951C121.543 24.7423 121.084 25.2137 120.637 25.7092C120.189 26.1927 119.766 26.6882 119.368 27.1959C118.969 27.7035 118.618 28.193 118.316 28.6644C117.663 29.6797 117.337 30.4714 117.337 31.0395Z" fill="#0B582A"/>
</svg>
