<svg width="95" height="95" viewBox="0 0 95 95" fill="none" xmlns="http://www.w3.org/2000/svg">
<path d="M14.0992 67.033C10.4694 67.033 9.56201 70.5619 9.56201 72.3263V82.1569H91.2314L92.7438 79.8883V62.4958L90.4752 60.2272C88.0554 57.8073 80.8967 53.1693 77.6199 51.1528H69.3017H57.2025C50.548 51.1528 48.3802 47.1197 48.1281 45.1032V21.6611H59.4711L54.1777 12.5867H37.5414C33.3066 12.5867 32.248 15.6115 32.248 17.1239V60.2272C32.248 65.6718 28.2149 67.033 26.1984 67.033H14.0992Z" fill="#E0DCDC"/>
<path d="M89.719 82.157V83.657H90.1345L90.4908 83.4433L89.719 82.157ZM93.5 79.8884L94.2717 81.1747L95 80.7377V79.8884H93.5ZM93.5 63.2521H95V63.0087L94.923 62.7777L93.5 63.2521ZM79.8884 51.9091L78.6208 52.7111L78.9578 53.2437L79.5741 53.3758L79.8884 51.9091ZM56.4463 14.8554L55.1206 15.5572L55.1477 15.6084L55.1787 15.6573L56.4463 14.8554ZM2 0.5C1.17157 0.5 0.5 1.17157 0.5 2C0.5 2.82843 1.17157 3.5 2 3.5V0.5ZM0.93934 47.8236C0.353553 48.4094 0.353553 49.3592 0.93934 49.945C1.52513 50.5307 2.47487 50.5307 3.06066 49.945L0.93934 47.8236ZM9.56198 41.3223L10.4887 40.1428C9.89166 39.6737 9.03823 39.7247 8.50132 40.2617L9.56198 41.3223ZM20.1488 49.6405L19.222 50.82C19.7161 51.2082 20.3998 51.2473 20.9349 50.918L20.1488 49.6405ZM29.9793 43.5909L30.8114 42.3428C30.324 42.0179 29.6921 42.0064 29.1932 42.3134L29.9793 43.5909ZM31.4159 46.3514C32.1052 46.8109 33.0365 46.6247 33.496 45.9354C33.9555 45.2461 33.7693 44.3148 33.08 43.8552L31.4159 46.3514ZM2 83.657H89.719V80.657H2V83.657ZM90.4908 83.4433L94.2717 81.1747L92.7283 78.6022L88.9473 80.8708L90.4908 83.4433ZM95 79.8884V63.2521H92V79.8884H95ZM94.923 62.7777C93.7914 59.3827 89.3156 52.3951 80.2027 50.4424L79.5741 53.3758C87.4001 55.0528 91.1921 61.0718 92.077 63.7264L94.923 62.7777ZM81.156 51.1071L57.7139 14.0534L55.1787 15.6573L78.6208 52.7111L81.156 51.1071ZM57.772 14.1535C56.5884 11.9179 54.433 8.58447 51.7662 5.78596C49.1646 3.05588 45.7601 0.5 42.0785 0.5V3.5C44.4465 3.5 47.0916 5.22924 49.5944 7.85557C52.0319 10.4135 54.0356 13.5077 55.1206 15.5572L57.772 14.1535ZM42.0785 0.5C42.0667 0.5 42.0548 0.5 42.0429 0.5C42.0309 0.5 42.0189 0.5 42.0068 0.5C41.9948 0.5 41.9826 0.5 41.9704 0.5C41.9582 0.5 41.9459 0.5 41.9336 0.5C41.9213 0.5 41.9089 0.5 41.8964 0.5C41.8839 0.5 41.8714 0.5 41.8588 0.5C41.8462 0.5 41.8336 0.5 41.8208 0.5C41.8081 0.5 41.7953 0.5 41.7825 0.5C41.7696 0.5 41.7567 0.5 41.7438 0.5C41.7308 0.5 41.7177 0.5 41.7046 0.5C41.6915 0.5 41.6784 0.5 41.6652 0.5C41.6519 0.5 41.6386 0.5 41.6253 0.5C41.6119 0.5 41.5985 0.5 41.585 0.5C41.5716 0.5 41.558 0.5 41.5444 0.5C41.5308 0.5 41.5171 0.5 41.5034 0.5C41.4897 0.5 41.4759 0.5 41.462 0.5C41.4482 0.5 41.4343 0.5 41.4203 0.5C41.4063 0.5 41.3923 0.5 41.3782 0.5C41.3641 0.5 41.3499 0.5 41.3357 0.5C41.3215 0.5 41.3072 0.5 41.2929 0.5C41.2785 0.5 41.2641 0.5 41.2497 0.5C41.2352 0.5 41.2207 0.5 41.2061 0.5C41.1915 0.5 41.1768 0.5 41.1621 0.5C41.1474 0.5 41.1327 0.5 41.1178 0.5C41.103 0.5 41.0881 0.5 41.0732 0.5C41.0582 0.5 41.0432 0.5 41.0282 0.5C41.0131 0.5 40.998 0.5 40.9828 0.5C40.9676 0.5 40.9523 0.5 40.937 0.5C40.9217 0.5 40.9064 0.5 40.8909 0.5C40.8755 0.5 40.86 0.5 40.8445 0.5C40.829 0.5 40.8134 0.5 40.7977 0.5C40.782 0.5 40.7663 0.5 40.7505 0.5C40.7348 0.5 40.7189 0.5 40.703 0.5C40.6872 0.5 40.6712 0.5 40.6552 0.5C40.6392 0.5 40.6231 0.5 40.607 0.5C40.5909 0.5 40.5747 0.5 40.5585 0.5C40.5422 0.5 40.5259 0.5 40.5096 0.5C40.4932 0.5 40.4768 0.5 40.4603 0.5C40.4439 0.5 40.4273 0.5 40.4108 0.5C40.3942 0.5 40.3775 0.5 40.3609 0.5C40.3442 0.5 40.3274 0.5 40.3106 0.5C40.2938 0.5 40.2769 0.5 40.26 0.5C40.2431 0.5 40.2261 0.5 40.2091 0.5C40.192 0.5 40.175 0.5 40.1578 0.5C40.1407 0.5 40.1235 0.5 40.1062 0.5C40.089 0.5 40.0716 0.5 40.0543 0.5C40.0369 0.5 40.0195 0.5 40.002 0.5C39.9845 0.5 39.967 0.5 39.9494 0.5C39.9318 0.5 39.9142 0.5 39.8965 0.5C39.8788 0.5 39.8611 0.5 39.8432 0.5C39.8254 0.5 39.8076 0.5 39.7897 0.5C39.7718 0.5 39.7538 0.5 39.7358 0.5C39.7177 0.5 39.6997 0.5 39.6815 0.5C39.6634 0.5 39.6452 0.5 39.627 0.5C39.6088 0.5 39.5905 0.5 39.5721 0.5C39.5538 0.5 39.5354 0.5 39.5169 0.5C39.4985 0.5 39.48 0.5 39.4614 0.5C39.4429 0.5 39.4243 0.5 39.4056 0.5C39.3869 0.5 39.3682 0.5 39.3495 0.5C39.3307 0.5 39.3119 0.5 39.293 0.5C39.2741 0.5 39.2552 0.5 39.2362 0.5C39.2173 0.5 39.1982 0.5 39.1791 0.5C39.1601 0.5 39.1409 0.5 39.1218 0.5C39.1026 0.5 39.0833 0.5 39.0641 0.5C39.0448 0.5 39.0254 0.5 39.006 0.5C38.9867 0.5 38.9672 0.5 38.9477 0.5C38.9282 0.5 38.9087 0.5 38.8891 0.5C38.8695 0.5 38.8499 0.5 38.8302 0.5C38.8105 0.5 38.7908 0.5 38.771 0.5C38.7512 0.5 38.7313 0.5 38.7114 0.5C38.6915 0.5 38.6716 0.5 38.6516 0.5C38.6316 0.5 38.6116 0.5 38.5915 0.5C38.5714 0.5 38.5512 0.5 38.5311 0.5C38.5109 0.5 38.4906 0.5 38.4703 0.5C38.45 0.5 38.4297 0.5 38.4093 0.5C38.3889 0.5 38.3685 0.5 38.348 0.5C38.3275 0.5 38.307 0.5 38.2864 0.5C38.2658 0.5 38.2452 0.5 38.2245 0.5C38.2038 0.5 38.1831 0.5 38.1623 0.5C38.1416 0.5 38.1207 0.5 38.0999 0.5C38.079 0.5 38.0581 0.5 38.0371 0.5C38.0161 0.5 37.9951 0.5 37.9741 0.5C37.953 0.5 37.9319 0.5 37.9107 0.5C37.8896 0.5 37.8684 0.5 37.8471 0.5C37.8259 0.5 37.8046 0.5 37.7832 0.5C37.7619 0.5 37.7405 0.5 37.7191 0.5C37.6976 0.5 37.6761 0.5 37.6546 0.5C37.6331 0.5 37.6115 0.5 37.5899 0.5C37.5683 0.5 37.5466 0.5 37.5249 0.5C37.5032 0.5 37.4814 0.5 37.4596 0.5C37.4378 0.5 37.416 0.5 37.3941 0.5C37.3722 0.5 37.3502 0.5 37.3282 0.5C37.3062 0.5 37.2842 0.5 37.2621 0.5C37.2401 0.5 37.2179 0.5 37.1958 0.5C37.1736 0.5 37.1514 0.5 37.1291 0.5C37.1069 0.5 37.0846 0.5 37.0622 0.5C37.0399 0.5 37.0175 0.5 36.9951 0.5C36.9726 0.5 36.9502 0.5 36.9276 0.5C36.9051 0.5 36.8826 0.5 36.8599 0.5C36.8373 0.5 36.8147 0.5 36.792 0.5C36.7693 0.5 36.7466 0.5 36.7238 0.5C36.701 0.5 36.6782 0.5 36.6553 0.5C36.6324 0.5 36.6095 0.5 36.5866 0.5C36.5636 0.5 36.5406 0.5 36.5176 0.5C36.4945 0.5 36.4715 0.5 36.4483 0.5C36.4252 0.5 36.402 0.5 36.3788 0.5C36.3556 0.5 36.3324 0.5 36.3091 0.5C36.2858 0.5 36.2625 0.5 36.2391 0.5C36.2157 0.5 36.1923 0.5 36.1688 0.5C36.1454 0.5 36.1219 0.5 36.0983 0.5C36.0748 0.5 36.0512 0.5 36.0276 0.5C36.0039 0.5 35.9803 0.5 35.9566 0.5C35.9329 0.5 35.9091 0.5 35.8853 0.5C35.8616 0.5 35.8377 0.5 35.8139 0.5C35.79 0.5 35.7661 0.5 35.7421 0.5C35.7182 0.5 35.6942 0.5 35.6702 0.5C35.6461 0.5 35.6221 0.5 35.598 0.5C35.5739 0.5 35.5497 0.5 35.5255 0.5C35.5013 0.5 35.4771 0.5 35.4528 0.5C35.4286 0.5 35.4043 0.5 35.3799 0.5C35.3556 0.5 35.3312 0.5 35.3068 0.5C35.2824 0.5 35.2579 0.5 35.2334 0.5C35.2089 0.5 35.1844 0.5 35.1598 0.5C35.1352 0.5 35.1106 0.5 35.0859 0.5C35.0613 0.5 35.0366 0.5 35.0119 0.5C34.9871 0.5 34.9624 0.5 34.9376 0.5C34.9128 0.5 34.8879 0.5 34.863 0.5C34.8382 0.5 34.8132 0.5 34.7883 0.5C34.7633 0.5 34.7383 0.5 34.7133 0.5C34.6883 0.5 34.6632 0.5 34.6381 0.5C34.613 0.5 34.5879 0.5 34.5627 0.5C34.5375 0.5 34.5123 0.5 34.4871 0.5C34.4618 0.5 34.4365 0.5 34.4112 0.5C34.3859 0.5 34.3605 0.5 34.3351 0.5C34.3097 0.5 34.2843 0.5 34.2588 0.5C34.2334 0.5 34.2079 0.5 34.1823 0.5C34.1568 0.5 34.1312 0.5 34.1056 0.5C34.08 0.5 34.0544 0.5 34.0287 0.5C34.003 0.5 33.9773 0.5 33.9516 0.5C33.9258 0.5 33.9 0.5 33.8742 0.5C33.8484 0.5 33.8225 0.5 33.7967 0.5C33.7708 0.5 33.7449 0.5 33.7189 0.5C33.6929 0.5 33.667 0.5 33.6409 0.5C33.6149 0.5 33.5889 0.5 33.5628 0.5C33.5367 0.5 33.5106 0.5 33.4844 0.5C33.4582 0.5 33.432 0.5 33.4058 0.5C33.3796 0.5 33.3533 0.5 33.327 0.5C33.3008 0.5 33.2744 0.5 33.2481 0.5C33.2217 0.5 33.1953 0.5 33.1689 0.5C33.1425 0.5 33.116 0.5 33.0895 0.5C33.0631 0.5 33.0365 0.5 33.01 0.5C32.9834 0.5 32.9568 0.5 32.9302 0.5C32.9036 0.5 32.877 0.5 32.8503 0.5C32.8236 0.5 32.7969 0.5 32.7702 0.5C32.7434 0.5 32.7166 0.5 32.6898 0.5C32.663 0.5 32.6362 0.5 32.6093 0.5C32.5824 0.5 32.5555 0.5 32.5286 0.5C32.5017 0.5 32.4747 0.5 32.4477 0.5C32.4207 0.5 32.3937 0.5 32.3667 0.5C32.3396 0.5 32.3125 0.5 32.2854 0.5C32.2583 0.5 32.2312 0.5 32.204 0.5C32.1768 0.5 32.1496 0.5 32.1224 0.5C32.0951 0.5 32.0679 0.5 32.0406 0.5C32.0133 0.5 31.986 0.5 31.9586 0.5C31.9313 0.5 31.9039 0.5 31.8765 0.5C31.8491 0.5 31.8216 0.5 31.7941 0.5C31.7667 0.5 31.7392 0.5 31.7117 0.5C31.6841 0.5 31.6566 0.5 31.629 0.5C31.6014 0.5 31.5738 0.5 31.5461 0.5C31.5185 0.5 31.4908 0.5 31.4631 0.5C31.4354 0.5 31.4077 0.5 31.38 0.5C31.3522 0.5 31.3244 0.5 31.2966 0.5C31.2688 0.5 31.241 0.5 31.2131 0.5C31.1853 0.5 31.1574 0.5 31.1295 0.5C31.1015 0.5 31.0736 0.5 31.0456 0.5C31.0176 0.5 30.9897 0.5 30.9616 0.5C30.9336 0.5 30.9055 0.5 30.8775 0.5C30.8494 0.5 30.8213 0.5 30.7932 0.5C30.765 0.5 30.7369 0.5 30.7087 0.5C30.6805 0.5 30.6523 0.5 30.6241 0.5C30.5958 0.5 30.5676 0.5 30.5393 0.5C30.511 0.5 30.4827 0.5 30.4543 0.5C30.426 0.5 30.3976 0.5 30.3692 0.5C30.3409 0.5 30.3124 0.5 30.284 0.5C30.2556 0.5 30.2271 0.5 30.1986 0.5C30.1701 0.5 30.1416 0.5 30.1131 0.5C30.0845 0.5 30.056 0.5 30.0274 0.5C29.9988 0.5 29.9702 0.5 29.9416 0.5C29.9129 0.5 29.8843 0.5 29.8556 0.5C29.8269 0.5 29.7982 0.5 29.7695 0.5C29.7407 0.5 29.712 0.5 29.6832 0.5C29.6544 0.5 29.6256 0.5 29.5968 0.5C29.568 0.5 29.5391 0.5 29.5103 0.5C29.4814 0.5 29.4525 0.5 29.4236 0.5C29.3947 0.5 29.3657 0.5 29.3368 0.5C29.3078 0.5 29.2788 0.5 29.2498 0.5C29.2208 0.5 29.1918 0.5 29.1627 0.5C29.1337 0.5 29.1046 0.5 29.0755 0.5C29.0464 0.5 29.0173 0.5 28.9882 0.5C28.959 0.5 28.9299 0.5 28.9007 0.5C28.8715 0.5 28.8423 0.5 28.8131 0.5C28.7839 0.5 28.7546 0.5 28.7254 0.5C28.6961 0.5 28.6668 0.5 28.6375 0.5C28.6082 0.5 28.5789 0.5 28.5495 0.5C28.5202 0.5 28.4908 0.5 28.4614 0.5C28.432 0.5 28.4026 0.5 28.3732 0.5C28.3438 0.5 28.3143 0.5 28.2848 0.5C28.2554 0.5 28.2259 0.5 28.1964 0.5C28.1669 0.5 28.1373 0.5 28.1078 0.5C28.0782 0.5 28.0487 0.5 28.0191 0.5C27.9895 0.5 27.9599 0.5 27.9302 0.5C27.9006 0.5 27.871 0.5 27.8413 0.5C27.8116 0.5 27.782 0.5 27.7523 0.5C27.7226 0.5 27.6928 0.5 27.6631 0.5C27.6334 0.5 27.6036 0.5 27.5738 0.5C27.5441 0.5 27.5143 0.5 27.4845 0.5C27.4547 0.5 27.4248 0.5 27.395 0.5C27.3651 0.5 27.3353 0.5 27.3054 0.5C27.2755 0.5 27.2456 0.5 27.2157 0.5C27.1858 0.5 27.1558 0.5 27.1259 0.5C27.0959 0.5 27.066 0.5 27.036 0.5C27.006 0.5 26.976 0.5 26.946 0.5C26.916 0.5 26.8859 0.5 26.8559 0.5C26.8258 0.5 26.7958 0.5 26.7657 0.5C26.7356 0.5 26.7055 0.5 26.6754 0.5C26.6453 0.5 26.6151 0.5 26.585 0.5C26.5548 0.5 26.5247 0.5 26.4945 0.5C26.4643 0.5 26.4341 0.5 26.4039 0.5C26.3737 0.5 26.3435 0.5 26.3132 0.5C26.283 0.5 26.2528 0.5 26.2225 0.5C26.1922 0.5 26.1619 0.5 26.1316 0.5C26.1013 0.5 26.071 0.5 26.0407 0.5C26.0104 0.5 25.98 0.5 25.9497 0.5C25.9193 0.5 25.8889 0.5 25.8586 0.5C25.8282 0.5 25.7978 0.5 25.7674 0.5C25.7369 0.5 25.7065 0.5 25.6761 0.5C25.6456 0.5 25.6152 0.5 25.5847 0.5C25.5543 0.5 25.5238 0.5 25.4933 0.5C25.4628 0.5 25.4323 0.5 25.4018 0.5C25.3712 0.5 25.3407 0.5 25.3102 0.5C25.2796 0.5 25.2491 0.5 25.2185 0.5C25.1879 0.5 25.1573 0.5 25.1268 0.5C25.0962 0.5 25.0656 0.5 25.0349 0.5C25.0043 0.5 24.9737 0.5 24.943 0.5C24.9124 0.5 24.8817 0.5 24.8511 0.5C24.8204 0.5 24.7897 0.5 24.7591 0.5C24.7284 0.5 24.6977 0.5 24.667 0.5C24.6362 0.5 24.6055 0.5 24.5748 0.5C24.5441 0.5 24.5133 0.5 24.4826 0.5C24.4518 0.5 24.421 0.5 24.3903 0.5C24.3595 0.5 24.3287 0.5 24.2979 0.5C24.2671 0.5 24.2363 0.5 24.2055 0.5C24.1747 0.5 24.1438 0.5 24.113 0.5C24.0822 0.5 24.0513 0.5 24.0205 0.5C23.9896 0.5 23.9588 0.5 23.9279 0.5C23.897 0.5 23.8661 0.5 23.8352 0.5C23.8043 0.5 23.7734 0.5 23.7425 0.5C23.7116 0.5 23.6807 0.5 23.6498 0.5C23.6188 0.5 23.5879 0.5 23.557 0.5C23.526 0.5 23.4951 0.5 23.4641 0.5C23.4331 0.5 23.4022 0.5 23.3712 0.5C23.3402 0.5 23.3092 0.5 23.2782 0.5C23.2472 0.5 23.2162 0.5 23.1852 0.5C23.1542 0.5 23.1232 0.5 23.0922 0.5C23.0611 0.5 23.0301 0.5 22.9991 0.5C22.968 0.5 22.937 0.5 22.9059 0.5C22.8749 0.5 22.8438 0.5 22.8127 0.5C22.7817 0.5 22.7506 0.5 22.7195 0.5C22.6884 0.5 22.6573 0.5 22.6263 0.5C22.5952 0.5 22.5641 0.5 22.533 0.5C22.5019 0.5 22.4707 0.5 22.4396 0.5C22.4085 0.5 22.3774 0.5 22.3463 0.5C22.3151 0.5 22.284 0.5 22.2529 0.5C22.2217 0.5 22.1906 0.5 22.1594 0.5C22.1283 0.5 22.0971 0.5 22.0659 0.5C22.0348 0.5 22.0036 0.5 21.9725 0.5C21.9413 0.5 21.9101 0.5 21.8789 0.5C21.8477 0.5 21.8166 0.5 21.7854 0.5C21.7542 0.5 21.723 0.5 21.6918 0.5C21.6606 0.5 21.6294 0.5 21.5982 0.5C21.567 0.5 21.5358 0.5 21.5046 0.5C21.4734 0.5 21.4421 0.5 21.4109 0.5C21.3797 0.5 21.3485 0.5 21.3173 0.5C21.286 0.5 21.2548 0.5 21.2236 0.5C21.1923 0.5 21.1611 0.5 21.1299 0.5C21.0986 0.5 21.0674 0.5 21.0361 0.5C21.0049 0.5 20.9736 0.5 20.9424 0.5C20.9112 0.5 20.8799 0.5 20.8486 0.5C20.8174 0.5 20.7861 0.5 20.7549 0.5C20.7236 0.5 20.6924 0.5 20.6611 0.5C20.6299 0.5 20.5986 0.5 20.5673 0.5C20.5361 0.5 20.5048 0.5 20.4735 0.5C20.4423 0.5 20.411 0.5 20.3797 0.5C20.3485 0.5 20.3172 0.5 20.2859 0.5C20.2547 0.5 20.2234 0.5 20.1921 0.5C20.1608 0.5 20.1296 0.5 20.0983 0.5C20.067 0.5 20.0358 0.5 20.0045 0.5C19.9732 0.5 19.9419 0.5 19.9107 0.5C19.8794 0.5 19.8481 0.5 19.8168 0.5C19.7856 0.5 19.7543 0.5 19.723 0.5C19.6918 0.5 19.6605 0.5 19.6292 0.5C19.5979 0.5 19.5667 0.5 19.5354 0.5C19.5041 0.5 19.4729 0.5 19.4416 0.5C19.4103 0.5 19.3791 0.5 19.3478 0.5C19.3166 0.5 19.2853 0.5 19.254 0.5C19.2228 0.5 19.1915 0.5 19.1603 0.5C19.129 0.5 19.0977 0.5 19.0665 0.5C19.0352 0.5 19.004 0.5 18.9727 0.5C18.9415 0.5 18.9102 0.5 18.879 0.5C18.8478 0.5 18.8165 0.5 18.7853 0.5C18.754 0.5 18.7228 0.5 18.6916 0.5C18.6603 0.5 18.6291 0.5 18.5979 0.5C18.5666 0.5 18.5354 0.5 18.5042 0.5C18.473 0.5 18.4418 0.5 18.4106 0.5C18.3793 0.5 18.3481 0.5 18.3169 0.5C18.2857 0.5 18.2545 0.5 18.2233 0.5C18.1921 0.5 18.1609 0.5 18.1297 0.5C18.0985 0.5 18.0674 0.5 18.0362 0.5C18.005 0.5 17.9738 0.5 17.9427 0.5C17.9115 0.5 17.8803 0.5 17.8491 0.5C17.818 0.5 17.7868 0.5 17.7557 0.5C17.7245 0.5 17.6934 0.5 17.6622 0.5C17.6311 0.5 17.6 0.5 17.5688 0.5C17.5377 0.5 17.5066 0.5 17.4755 0.5C17.4443 0.5 17.4132 0.5 17.3821 0.5C17.351 0.5 17.3199 0.5 17.2888 0.5C17.2577 0.5 17.2266 0.5 17.1955 0.5C17.1645 0.5 17.1334 0.5 17.1023 0.5C17.0712 0.5 17.0402 0.5 17.0091 0.5C16.9781 0.5 16.947 0.5 16.916 0.5C16.8849 0.5 16.8539 0.5 16.8229 0.5C16.7919 0.5 16.7608 0.5 16.7298 0.5C16.6988 0.5 16.6678 0.5 16.6368 0.5C16.6058 0.5 16.5748 0.5 16.5438 0.5C16.5129 0.5 16.4819 0.5 16.4509 0.5C16.42 0.5 16.389 0.5 16.3581 0.5C16.3271 0.5 16.2962 0.5 16.2652 0.5C16.2343 0.5 16.2034 0.5 16.1725 0.5C16.1416 0.5 16.1106 0.5 16.0798 0.5C16.0489 0.5 16.018 0.5 15.9871 0.5C15.9562 0.5 15.9253 0.5 15.8945 0.5C15.8636 0.5 15.8328 0.5 15.8019 0.5C15.7711 0.5 15.7403 0.5 15.7095 0.5C15.6786 0.5 15.6478 0.5 15.617 0.5C15.5862 0.5 15.5554 0.5 15.5247 0.5C15.4939 0.5 15.4631 0.5 15.4324 0.5C15.4016 0.5 15.3709 0.5 15.3401 0.5C15.3094 0.5 15.2787 0.5 15.2479 0.5C15.2172 0.5 15.1865 0.5 15.1558 0.5C15.1251 0.5 15.0945 0.5 15.0638 0.5C15.0331 0.5 15.0025 0.5 14.9718 0.5C14.9412 0.5 14.9105 0.5 14.8799 0.5C14.8493 0.5 14.8187 0.5 14.7881 0.5C14.7575 0.5 14.7269 0.5 14.6963 0.5C14.6658 0.5 14.6352 0.5 14.6047 0.5C14.5741 0.5 14.5436 0.5 14.5131 0.5C14.4825 0.5 14.452 0.5 14.4215 0.5C14.391 0.5 14.3605 0.5 14.3301 0.5C14.2996 0.5 14.2691 0.5 14.2387 0.5C14.2083 0.5 14.1778 0.5 14.1474 0.5C14.117 0.5 14.0866 0.5 14.0562 0.5C14.0258 0.5 13.9954 0.5 13.9651 0.5C13.9347 0.5 13.9044 0.5 13.874 0.5C13.8437 0.5 13.8134 0.5 13.7831 0.5C13.7528 0.5 13.7225 0.5 13.6922 0.5C13.662 0.5 13.6317 0.5 13.6014 0.5C13.5712 0.5 13.541 0.5 13.5108 0.5C13.4805 0.5 13.4504 0.5 13.4202 0.5C13.39 0.5 13.3598 0.5 13.3297 0.5C13.2995 0.5 13.2694 0.5 13.2393 0.5C13.2091 0.5 13.179 0.5 13.1489 0.5C13.1189 0.5 13.0888 0.5 13.0587 0.5C13.0287 0.5 12.9986 0.5 12.9686 0.5C12.9386 0.5 12.9086 0.5 12.8786 0.5C12.8486 0.5 12.8186 0.5 12.7887 0.5C12.7587 0.5 12.7288 0.5 12.6989 0.5C12.6689 0.5 12.639 0.5 12.6092 0.5C12.5793 0.5 12.5494 0.5 12.5195 0.5C12.4897 0.5 12.4599 0.5 12.43 0.5C12.4002 0.5 12.3704 0.5 12.3407 0.5C12.3109 0.5 12.2811 0.5 12.2514 0.5C12.2216 0.5 12.1919 0.5 12.1622 0.5C12.1325 0.5 12.1028 0.5 12.0731 0.5C12.0435 0.5 12.0138 0.5 11.9842 0.5C11.9545 0.5 11.9249 0.5 11.8953 0.5C11.8658 0.5 11.8362 0.5 11.8066 0.5C11.7771 0.5 11.7475 0.5 11.718 0.5C11.6885 0.5 11.659 0.5 11.6295 0.5C11.6001 0.5 11.5706 0.5 11.5412 0.5C11.5117 0.5 11.4823 0.5 11.4529 0.5C11.4235 0.5 11.3941 0.5 11.3648 0.5C11.3354 0.5 11.3061 0.5 11.2768 0.5C11.2475 0.5 11.2182 0.5 11.1889 0.5C11.1596 0.5 11.1304 0.5 11.1012 0.5C11.0719 0.5 11.0427 0.5 11.0135 0.5C10.9843 0.5 10.9552 0.5 10.926 0.5C10.8969 0.5 10.8678 0.5 10.8387 0.5C10.8096 0.5 10.7805 0.5 10.7514 0.5C10.7224 0.5 10.6933 0.5 10.6643 0.5C10.6353 0.5 10.6063 0.5 10.5774 0.5C10.5484 0.5 10.5195 0.5 10.4905 0.5C10.4616 0.5 10.4327 0.5 10.4038 0.5C10.375 0.5 10.3461 0.5 10.3173 0.5C10.2884 0.5 10.2596 0.5 10.2308 0.5C10.2021 0.5 10.1733 0.5 10.1446 0.5C10.1158 0.5 10.0871 0.5 10.0584 0.5C10.0297 0.5 10.0011 0.5 9.97243 0.5C9.94379 0.5 9.91517 0.5 9.88658 0.5C9.85799 0.5 9.82942 0.5 9.80087 0.5C9.77233 0.5 9.74381 0.5 9.71531 0.5C9.68682 0.5 9.65835 0.5 9.6299 0.5C9.60146 0.5 9.57304 0.5 9.54464 0.5C9.51625 0.5 9.48788 0.5 9.45953 0.5C9.43119 0.5 9.40287 0.5 9.37457 0.5C9.34628 0.5 9.31801 0.5 9.28977 0.5C9.26152 0.5 9.23331 0.5 9.20512 0.5C9.17692 0.5 9.14876 0.5 9.12062 0.5C9.09248 0.5 9.06437 0.5 9.03628 0.5C9.0082 0.5 8.98014 0.5 8.95211 0.5C8.92407 0.5 8.89607 0.5 8.86809 0.5C8.84011 0.5 8.81216 0.5 8.78423 0.5C8.75631 0.5 8.72841 0.5 8.70054 0.5C8.67267 0.5 8.64482 0.5 8.61701 0.5C8.58919 0.5 8.5614 0.5 8.53364 0.5C8.50588 0.5 8.47815 0.5 8.45044 0.5C8.42274 0.5 8.39506 0.5 8.36741 0.5C8.33977 0.5 8.31215 0.5 8.28455 0.5C8.25696 0.5 8.2294 0.5 8.20186 0.5C8.17433 0.5 8.14682 0.5 8.11935 0.5C8.09187 0.5 8.06442 0.5 8.037 0.5C8.00958 0.5 7.98219 0.5 7.95483 0.5C7.92747 0.5 7.90014 0.5 7.87284 0.5C7.84554 0.5 7.81826 0.5 7.79102 0.5C7.76378 0.5 7.73656 0.5 7.70938 0.5C7.6822 0.5 7.65505 0.5 7.62792 0.5C7.6008 0.5 7.57371 0.5 7.54665 0.5C7.51958 0.5 7.49255 0.5 7.46555 0.5C7.43855 0.5 7.41158 0.5 7.38464 0.5C7.3577 0.5 7.33079 0.5 7.30391 0.5C7.27704 0.5 7.25019 0.5 7.22337 0.5C7.19656 0.5 7.16978 0.5 7.14302 0.5C7.11627 0.5 7.08955 0.5 7.06286 0.5C7.03617 0.5 7.00951 0.5 6.98289 0.5C6.95626 0.5 6.92967 0.5 6.90311 0.5C6.87655 0.5 6.85002 0.5 6.82352 0.5C6.79702 0.5 6.77056 0.5 6.74413 0.5C6.7177 0.5 6.6913 0.5 6.66493 0.5C6.63856 0.5 6.61223 0.5 6.58593 0.5C6.55963 0.5 6.53336 0.5 6.50713 0.5C6.48089 0.5 6.45469 0.5 6.42852 0.5C6.40236 0.5 6.37622 0.5 6.35012 0.5C6.32402 0.5 6.29796 0.5 6.27192 0.5C6.24589 0.5 6.21989 0.5 6.19393 0.5C6.16796 0.5 6.14203 0.5 6.11614 0.5C6.09024 0.5 6.06438 0.5 6.03855 0.5C6.01273 0.5 5.98693 0.5 5.96118 0.5C5.93542 0.5 5.9097 0.5 5.88401 0.5C5.85832 0.5 5.83267 0.5 5.80705 0.5C5.78143 0.5 5.75585 0.5 5.7303 0.5C5.70476 0.5 5.67925 0.5 5.65377 0.5C5.6283 0.5 5.60286 0.5 5.57745 0.5C5.55205 0.5 5.52668 0.5 5.50135 0.5C5.47602 0.5 5.45072 0.5 5.42546 0.5C5.4002 0.5 5.37498 0.5 5.34979 0.5C5.32461 0.5 5.29946 0.5 5.27434 0.5C5.24923 0.5 5.22415 0.5 5.19911 0.5C5.17407 0.5 5.14907 0.5 5.12411 0.5C5.09914 0.5 5.07421 0.5 5.04932 0.5C5.02443 0.5 4.99958 0.5 4.97476 0.5C4.94995 0.5 4.92517 0.5 4.90043 0.5C4.87569 0.5 4.85099 0.5 4.82633 0.5C4.80166 0.5 4.77704 0.5 4.75245 0.5C4.72786 0.5 4.70331 0.5 4.6788 0.5C4.65429 0.5 4.62982 0.5 4.60539 0.5C4.58095 0.5 4.55656 0.5 4.5322 0.5C4.50785 0.5 4.48353 0.5 4.45925 0.5C4.43498 0.5 4.41074 0.5 4.38654 0.5C4.36234 0.5 4.33818 0.5 4.31406 0.5C4.28994 0.5 4.26586 0.5 4.24182 0.5C4.21778 0.5 4.19378 0.5 4.16982 0.5C4.14586 0.5 4.12194 0.5 4.09806 0.5C4.07418 0.5 4.05035 0.5 4.02655 0.5C4.00275 0.5 3.97899 0.5 3.95527 0.5C3.93155 0.5 3.90788 0.5 3.88424 0.5C3.86061 0.5 3.83701 0.5 3.81346 0.5C3.7899 0.5 3.76639 0.5 3.74292 0.5C3.71945 0.5 3.69602 0.5 3.67263 0.5C3.64924 0.5 3.6259 0.5 3.60259 0.5C3.57929 0.5 3.55602 0.5 3.5328 0.5C3.50958 0.5 3.4864 0.5 3.46327 0.5C3.44013 0.5 3.41704 0.5 3.39399 0.5C3.37093 0.5 3.34792 0.5 3.32496 0.5C3.30199 0.5 3.27907 0.5 3.25619 0.5C3.23331 0.5 3.21047 0.5 3.18767 0.5C3.16488 0.5 3.14213 0.5 3.11942 0.5C3.09671 0.5 3.07405 0.5 3.05143 0.5C3.02881 0.5 3.00623 0.5 2.98369 0.5C2.96116 0.5 2.93867 0.5 2.91623 0.5C2.89378 0.5 2.87138 0.5 2.84902 0.5C2.82666 0.5 2.80435 0.5 2.78208 0.5C2.75981 0.5 2.73759 0.5 2.71541 0.5C2.69323 0.5 2.67109 0.5 2.649 0.5C2.62691 0.5 2.60487 0.5 2.58287 0.5C2.56087 0.5 2.53891 0.5 2.517 0.5C2.4951 0.5 2.47323 0.5 2.45141 0.5C2.42959 0.5 2.40782 0.5 2.38609 0.5C2.36437 0.5 2.34269 0.5 2.32105 0.5C2.29942 0.5 2.27783 0.5 2.25628 0.5C2.23474 0.5 2.21324 0.5 2.19179 0.5C2.17034 0.5 2.14894 0.5 2.12758 0.5C2.10622 0.5 2.08491 0.5 2.06365 0.5C2.04239 0.5 2.02117 0.5 2 0.5V3.5C2.02117 3.5 2.04239 3.5 2.06365 3.5C2.08491 3.5 2.10622 3.5 2.12758 3.5C2.14894 3.5 2.17034 3.5 2.19179 3.5C2.21324 3.5 2.23474 3.5 2.25628 3.5C2.27783 3.5 2.29942 3.5 2.32105 3.5C2.34269 3.5 2.36437 3.5 2.38609 3.5C2.40782 3.5 2.42959 3.5 2.45141 3.5C2.47323 3.5 2.4951 3.5 2.517 3.5C2.53891 3.5 2.56087 3.5 2.58287 3.5C2.60487 3.5 2.62691 3.5 2.649 3.5C2.67109 3.5 2.69323 3.5 2.71541 3.5C2.73759 3.5 2.75981 3.5 2.78208 3.5C2.80435 3.5 2.82666 3.5 2.84902 3.5C2.87138 3.5 2.89378 3.5 2.91623 3.5C2.93867 3.5 2.96116 3.5 2.98369 3.5C3.00623 3.5 3.02881 3.5 3.05143 3.5C3.07405 3.5 3.09671 3.5 3.11942 3.5C3.14213 3.5 3.16488 3.5 3.18767 3.5C3.21047 3.5 3.23331 3.5 3.25619 3.5C3.27907 3.5 3.30199 3.5 3.32496 3.5C3.34792 3.5 3.37093 3.5 3.39399 3.5C3.41704 3.5 3.44013 3.5 3.46327 3.5C3.4864 3.5 3.50958 3.5 3.5328 3.5C3.55602 3.5 3.57929 3.5 3.60259 3.5C3.6259 3.5 3.64924 3.5 3.67263 3.5C3.69602 3.5 3.71945 3.5 3.74292 3.5C3.76639 3.5 3.7899 3.5 3.81346 3.5C3.83701 3.5 3.86061 3.5 3.88424 3.5C3.90788 3.5 3.93155 3.5 3.95527 3.5C3.97899 3.5 4.00275 3.5 4.02655 3.5C4.05035 3.5 4.07418 3.5 4.09806 3.5C4.12194 3.5 4.14586 3.5 4.16982 3.5C4.19378 3.5 4.21778 3.5 4.24182 3.5C4.26586 3.5 4.28994 3.5 4.31406 3.5C4.33818 3.5 4.36234 3.5 4.38654 3.5C4.41074 3.5 4.43498 3.5 4.45925 3.5C4.48353 3.5 4.50785 3.5 4.5322 3.5C4.55656 3.5 4.58095 3.5 4.60539 3.5C4.62982 3.5 4.65429 3.5 4.6788 3.5C4.70331 3.5 4.72786 3.5 4.75245 3.5C4.77704 3.5 4.80166 3.5 4.82633 3.5C4.85099 3.5 4.87569 3.5 4.90043 3.5C4.92517 3.5 4.94995 3.5 4.97476 3.5C4.99958 3.5 5.02443 3.5 5.04932 3.5C5.07421 3.5 5.09914 3.5 5.12411 3.5C5.14907 3.5 5.17407 3.5 5.19911 3.5C5.22415 3.5 5.24923 3.5 5.27434 3.5C5.29946 3.5 5.32461 3.5 5.34979 3.5C5.37498 3.5 5.4002 3.5 5.42546 3.5C5.45072 3.5 5.47602 3.5 5.50135 3.5C5.52668 3.5 5.55205 3.5 5.57745 3.5C5.60286 3.5 5.6283 3.5 5.65377 3.5C5.67925 3.5 5.70476 3.5 5.7303 3.5C5.75585 3.5 5.78143 3.5 5.80705 3.5C5.83267 3.5 5.85832 3.5 5.88401 3.5C5.9097 3.5 5.93542 3.5 5.96118 3.5C5.98693 3.5 6.01273 3.5 6.03855 3.5C6.06438 3.5 6.09024 3.5 6.11614 3.5C6.14203 3.5 6.16796 3.5 6.19393 3.5C6.21989 3.5 6.24589 3.5 6.27192 3.5C6.29796 3.5 6.32402 3.5 6.35012 3.5C6.37622 3.5 6.40236 3.5 6.42852 3.5C6.45469 3.5 6.48089 3.5 6.50713 3.5C6.53336 3.5 6.55963 3.5 6.58593 3.5C6.61223 3.5 6.63856 3.5 6.66493 3.5C6.6913 3.5 6.7177 3.5 6.74413 3.5C6.77056 3.5 6.79702 3.5 6.82352 3.5C6.85002 3.5 6.87655 3.5 6.90311 3.5C6.92967 3.5 6.95626 3.5 6.98289 3.5C7.00951 3.5 7.03617 3.5 7.06286 3.5C7.08955 3.5 7.11627 3.5 7.14302 3.5C7.16978 3.5 7.19656 3.5 7.22337 3.5C7.25019 3.5 7.27704 3.5 7.30391 3.5C7.33079 3.5 7.3577 3.5 7.38464 3.5C7.41158 3.5 7.43855 3.5 7.46555 3.5C7.49255 3.5 7.51958 3.5 7.54665 3.5C7.57371 3.5 7.6008 3.5 7.62792 3.5C7.65505 3.5 7.6822 3.5 7.70938 3.5C7.73656 3.5 7.76378 3.5 7.79102 3.5C7.81826 3.5 7.84554 3.5 7.87284 3.5C7.90014 3.5 7.92747 3.5 7.95483 3.5C7.98219 3.5 8.00958 3.5 8.037 3.5C8.06442 3.5 8.09187 3.5 8.11935 3.5C8.14682 3.5 8.17433 3.5 8.20186 3.5C8.2294 3.5 8.25696 3.5 8.28455 3.5C8.31215 3.5 8.33977 3.5 8.36741 3.5C8.39506 3.5 8.42274 3.5 8.45044 3.5C8.47815 3.5 8.50588 3.5 8.53364 3.5C8.5614 3.5 8.58919 3.5 8.61701 3.5C8.64482 3.5 8.67267 3.5 8.70054 3.5C8.72841 3.5 8.75631 3.5 8.78423 3.5C8.81216 3.5 8.84011 3.5 8.86809 3.5C8.89607 3.5 8.92407 3.5 8.95211 3.5C8.98014 3.5 9.0082 3.5 9.03628 3.5C9.06437 3.5 9.09248 3.5 9.12062 3.5C9.14876 3.5 9.17692 3.5 9.20512 3.5C9.23331 3.5 9.26152 3.5 9.28977 3.5C9.31801 3.5 9.34628 3.5 9.37457 3.5C9.40287 3.5 9.43119 3.5 9.45953 3.5C9.48788 3.5 9.51625 3.5 9.54464 3.5C9.57304 3.5 9.60146 3.5 9.6299 3.5C9.65835 3.5 9.68682 3.5 9.71531 3.5C9.74381 3.5 9.77233 3.5 9.80087 3.5C9.82942 3.5 9.85799 3.5 9.88658 3.5C9.91517 3.5 9.94379 3.5 9.97243 3.5C10.0011 3.5 10.0297 3.5 10.0584 3.5C10.0871 3.5 10.1158 3.5 10.1446 3.5C10.1733 3.5 10.2021 3.5 10.2308 3.5C10.2596 3.5 10.2884 3.5 10.3173 3.5C10.3461 3.5 10.375 3.5 10.4038 3.5C10.4327 3.5 10.4616 3.5 10.4905 3.5C10.5195 3.5 10.5484 3.5 10.5774 3.5C10.6063 3.5 10.6353 3.5 10.6643 3.5C10.6933 3.5 10.7224 3.5 10.7514 3.5C10.7805 3.5 10.8096 3.5 10.8387 3.5C10.8678 3.5 10.8969 3.5 10.926 3.5C10.9552 3.5 10.9843 3.5 11.0135 3.5C11.0427 3.5 11.0719 3.5 11.1012 3.5C11.1304 3.5 11.1596 3.5 11.1889 3.5C11.2182 3.5 11.2475 3.5 11.2768 3.5C11.3061 3.5 11.3354 3.5 11.3648 3.5C11.3941 3.5 11.4235 3.5 11.4529 3.5C11.4823 3.5 11.5117 3.5 11.5412 3.5C11.5706 3.5 11.6001 3.5 11.6295 3.5C11.659 3.5 11.6885 3.5 11.718 3.5C11.7475 3.5 11.7771 3.5 11.8066 3.5C11.8362 3.5 11.8658 3.5 11.8953 3.5C11.9249 3.5 11.9545 3.5 11.9842 3.5C12.0138 3.5 12.0435 3.5 12.0731 3.5C12.1028 3.5 12.1325 3.5 12.1622 3.5C12.1919 3.5 12.2216 3.5 12.2514 3.5C12.2811 3.5 12.3109 3.5 12.3407 3.5C12.3704 3.5 12.4002 3.5 12.43 3.5C12.4599 3.5 12.4897 3.5 12.5195 3.5C12.5494 3.5 12.5793 3.5 12.6092 3.5C12.639 3.5 12.6689 3.5 12.6989 3.5C12.7288 3.5 12.7587 3.5 12.7887 3.5C12.8186 3.5 12.8486 3.5 12.8786 3.5C12.9086 3.5 12.9386 3.5 12.9686 3.5C12.9986 3.5 13.0287 3.5 13.0587 3.5C13.0888 3.5 13.1189 3.5 13.1489 3.5C13.179 3.5 13.2091 3.5 13.2393 3.5C13.2694 3.5 13.2995 3.5 13.3297 3.5C13.3598 3.5 13.39 3.5 13.4202 3.5C13.4504 3.5 13.4805 3.5 13.5108 3.5C13.541 3.5 13.5712 3.5 13.6014 3.5C13.6317 3.5 13.662 3.5 13.6922 3.5C13.7225 3.5 13.7528 3.5 13.7831 3.5C13.8134 3.5 13.8437 3.5 13.874 3.5C13.9044 3.5 13.9347 3.5 13.9651 3.5C13.9954 3.5 14.0258 3.5 14.0562 3.5C14.0866 3.5 14.117 3.5 14.1474 3.5C14.1778 3.5 14.2083 3.5 14.2387 3.5C14.2691 3.5 14.2996 3.5 14.3301 3.5C14.3605 3.5 14.391 3.5 14.4215 3.5C14.452 3.5 14.4825 3.5 14.5131 3.5C14.5436 3.5 14.5741 3.5 14.6047 3.5C14.6352 3.5 14.6658 3.5 14.6963 3.5C14.7269 3.5 14.7575 3.5 14.7881 3.5C14.8187 3.5 14.8493 3.5 14.8799 3.5C14.9105 3.5 14.9412 3.5 14.9718 3.5C15.0025 3.5 15.0331 3.5 15.0638 3.5C15.0945 3.5 15.1251 3.5 15.1558 3.5C15.1865 3.5 15.2172 3.5 15.2479 3.5C15.2787 3.5 15.3094 3.5 15.3401 3.5C15.3709 3.5 15.4016 3.5 15.4324 3.5C15.4631 3.5 15.4939 3.5 15.5247 3.5C15.5554 3.5 15.5862 3.5 15.617 3.5C15.6478 3.5 15.6786 3.5 15.7095 3.5C15.7403 3.5 15.7711 3.5 15.8019 3.5C15.8328 3.5 15.8636 3.5 15.8945 3.5C15.9253 3.5 15.9562 3.5 15.9871 3.5C16.018 3.5 16.0489 3.5 16.0798 3.5C16.1106 3.5 16.1416 3.5 16.1725 3.5C16.2034 3.5 16.2343 3.5 16.2652 3.5C16.2962 3.5 16.3271 3.5 16.3581 3.5C16.389 3.5 16.42 3.5 16.4509 3.5C16.4819 3.5 16.5129 3.5 16.5438 3.5C16.5748 3.5 16.6058 3.5 16.6368 3.5C16.6678 3.5 16.6988 3.5 16.7298 3.5C16.7608 3.5 16.7919 3.5 16.8229 3.5C16.8539 3.5 16.8849 3.5 16.916 3.5C16.947 3.5 16.9781 3.5 17.0091 3.5C17.0402 3.5 17.0712 3.5 17.1023 3.5C17.1334 3.5 17.1645 3.5 17.1955 3.5C17.2266 3.5 17.2577 3.5 17.2888 3.5C17.3199 3.5 17.351 3.5 17.3821 3.5C17.4132 3.5 17.4443 3.5 17.4755 3.5C17.5066 3.5 17.5377 3.5 17.5688 3.5C17.6 3.5 17.6311 3.5 17.6622 3.5C17.6934 3.5 17.7245 3.5 17.7557 3.5C17.7868 3.5 17.818 3.5 17.8491 3.5C17.8803 3.5 17.9115 3.5 17.9427 3.5C17.9738 3.5 18.005 3.5 18.0362 3.5C18.0674 3.5 18.0985 3.5 18.1297 3.5C18.1609 3.5 18.1921 3.5 18.2233 3.5C18.2545 3.5 18.2857 3.5 18.3169 3.5C18.3481 3.5 18.3793 3.5 18.4106 3.5C18.4418 3.5 18.473 3.5 18.5042 3.5C18.5354 3.5 18.5666 3.5 18.5979 3.5C18.6291 3.5 18.6603 3.5 18.6916 3.5C18.7228 3.5 18.754 3.5 18.7853 3.5C18.8165 3.5 18.8478 3.5 18.879 3.5C18.9102 3.5 18.9415 3.5 18.9727 3.5C19.004 3.5 19.0352 3.5 19.0665 3.5C19.0977 3.5 19.129 3.5 19.1603 3.5C19.1915 3.5 19.2228 3.5 19.254 3.5C19.2853 3.5 19.3166 3.5 19.3478 3.5C19.3791 3.5 19.4103 3.5 19.4416 3.5C19.4729 3.5 19.5041 3.5 19.5354 3.5C19.5667 3.5 19.5979 3.5 19.6292 3.5C19.6605 3.5 19.6918 3.5 19.723 3.5C19.7543 3.5 19.7856 3.5 19.8168 3.5C19.8481 3.5 19.8794 3.5 19.9107 3.5C19.9419 3.5 19.9732 3.5 20.0045 3.5C20.0358 3.5 20.067 3.5 20.0983 3.5C20.1296 3.5 20.1608 3.5 20.1921 3.5C20.2234 3.5 20.2547 3.5 20.2859 3.5C20.3172 3.5 20.3485 3.5 20.3797 3.5C20.411 3.5 20.4423 3.5 20.4735 3.5C20.5048 3.5 20.5361 3.5 20.5673 3.5C20.5986 3.5 20.6299 3.5 20.6611 3.5C20.6924 3.5 20.7236 3.5 20.7549 3.5C20.7861 3.5 20.8174 3.5 20.8486 3.5C20.8799 3.5 20.9112 3.5 20.9424 3.5C20.9736 3.5 21.0049 3.5 21.0361 3.5C21.0674 3.5 21.0986 3.5 21.1299 3.5C21.1611 3.5 21.1923 3.5 21.2236 3.5C21.2548 3.5 21.286 3.5 21.3173 3.5C21.3485 3.5 21.3797 3.5 21.4109 3.5C21.4421 3.5 21.4734 3.5 21.5046 3.5C21.5358 3.5 21.567 3.5 21.5982 3.5C21.6294 3.5 21.6606 3.5 21.6918 3.5C21.723 3.5 21.7542 3.5 21.7854 3.5C21.8166 3.5 21.8477 3.5 21.8789 3.5C21.9101 3.5 21.9413 3.5 21.9725 3.5C22.0036 3.5 22.0348 3.5 22.0659 3.5C22.0971 3.5 22.1283 3.5 22.1594 3.5C22.1906 3.5 22.2217 3.5 22.2529 3.5C22.284 3.5 22.3151 3.5 22.3463 3.5C22.3774 3.5 22.4085 3.5 22.4396 3.5C22.4707 3.5 22.5019 3.5 22.533 3.5C22.5641 3.5 22.5952 3.5 22.6263 3.5C22.6573 3.5 22.6884 3.5 22.7195 3.5C22.7506 3.5 22.7817 3.5 22.8127 3.5C22.8438 3.5 22.8749 3.5 22.9059 3.5C22.937 3.5 22.968 3.5 22.9991 3.5C23.0301 3.5 23.0611 3.5 23.0922 3.5C23.1232 3.5 23.1542 3.5 23.1852 3.5C23.2162 3.5 23.2472 3.5 23.2782 3.5C23.3092 3.5 23.3402 3.5 23.3712 3.5C23.4022 3.5 23.4331 3.5 23.4641 3.5C23.4951 3.5 23.526 3.5 23.557 3.5C23.5879 3.5 23.6188 3.5 23.6498 3.5C23.6807 3.5 23.7116 3.5 23.7425 3.5C23.7734 3.5 23.8043 3.5 23.8352 3.5C23.8661 3.5 23.897 3.5 23.9279 3.5C23.9588 3.5 23.9896 3.5 24.0205 3.5C24.0513 3.5 24.0822 3.5 24.113 3.5C24.1438 3.5 24.1747 3.5 24.2055 3.5C24.2363 3.5 24.2671 3.5 24.2979 3.5C24.3287 3.5 24.3595 3.5 24.3903 3.5C24.421 3.5 24.4518 3.5 24.4826 3.5C24.5133 3.5 24.5441 3.5 24.5748 3.5C24.6055 3.5 24.6362 3.5 24.667 3.5C24.6977 3.5 24.7284 3.5 24.7591 3.5C24.7897 3.5 24.8204 3.5 24.8511 3.5C24.8817 3.5 24.9124 3.5 24.943 3.5C24.9737 3.5 25.0043 3.5 25.0349 3.5C25.0656 3.5 25.0962 3.5 25.1268 3.5C25.1573 3.5 25.1879 3.5 25.2185 3.5C25.2491 3.5 25.2796 3.5 25.3102 3.5C25.3407 3.5 25.3712 3.5 25.4018 3.5C25.4323 3.5 25.4628 3.5 25.4933 3.5C25.5238 3.5 25.5543 3.5 25.5847 3.5C25.6152 3.5 25.6456 3.5 25.6761 3.5C25.7065 3.5 25.7369 3.5 25.7674 3.5C25.7978 3.5 25.8282 3.5 25.8586 3.5C25.8889 3.5 25.9193 3.5 25.9497 3.5C25.98 3.5 26.0104 3.5 26.0407 3.5C26.071 3.5 26.1013 3.5 26.1316 3.5C26.1619 3.5 26.1922 3.5 26.2225 3.5C26.2528 3.5 26.283 3.5 26.3132 3.5C26.3435 3.5 26.3737 3.5 26.4039 3.5C26.4341 3.5 26.4643 3.5 26.4945 3.5C26.5247 3.5 26.5548 3.5 26.585 3.5C26.6151 3.5 26.6453 3.5 26.6754 3.5C26.7055 3.5 26.7356 3.5 26.7657 3.5C26.7958 3.5 26.8258 3.5 26.8559 3.5C26.8859 3.5 26.916 3.5 26.946 3.5C26.976 3.5 27.006 3.5 27.036 3.5C27.066 3.5 27.0959 3.5 27.1259 3.5C27.1558 3.5 27.1858 3.5 27.2157 3.5C27.2456 3.5 27.2755 3.5 27.3054 3.5C27.3353 3.5 27.3651 3.5 27.395 3.5C27.4248 3.5 27.4547 3.5 27.4845 3.5C27.5143 3.5 27.5441 3.5 27.5738 3.5C27.6036 3.5 27.6334 3.5 27.6631 3.5C27.6928 3.5 27.7226 3.5 27.7523 3.5C27.782 3.5 27.8116 3.5 27.8413 3.5C27.871 3.5 27.9006 3.5 27.9302 3.5C27.9599 3.5 27.9895 3.5 28.0191 3.5C28.0487 3.5 28.0782 3.5 28.1078 3.5C28.1373 3.5 28.1669 3.5 28.1964 3.5C28.2259 3.5 28.2554 3.5 28.2848 3.5C28.3143 3.5 28.3438 3.5 28.3732 3.5C28.4026 3.5 28.432 3.5 28.4614 3.5C28.4908 3.5 28.5202 3.5 28.5495 3.5C28.5789 3.5 28.6082 3.5 28.6375 3.5C28.6668 3.5 28.6961 3.5 28.7254 3.5C28.7546 3.5 28.7839 3.5 28.8131 3.5C28.8423 3.5 28.8715 3.5 28.9007 3.5C28.9299 3.5 28.959 3.5 28.9882 3.5C29.0173 3.5 29.0464 3.5 29.0755 3.5C29.1046 3.5 29.1337 3.5 29.1627 3.5C29.1918 3.5 29.2208 3.5 29.2498 3.5C29.2788 3.5 29.3078 3.5 29.3368 3.5C29.3657 3.5 29.3947 3.5 29.4236 3.5C29.4525 3.5 29.4814 3.5 29.5103 3.5C29.5391 3.5 29.568 3.5 29.5968 3.5C29.6256 3.5 29.6544 3.5 29.6832 3.5C29.712 3.5 29.7407 3.5 29.7695 3.5C29.7982 3.5 29.8269 3.5 29.8556 3.5C29.8843 3.5 29.9129 3.5 29.9416 3.5C29.9702 3.5 29.9988 3.5 30.0274 3.5C30.056 3.5 30.0845 3.5 30.1131 3.5C30.1416 3.5 30.1701 3.5 30.1986 3.5C30.2271 3.5 30.2556 3.5 30.284 3.5C30.3124 3.5 30.3409 3.5 30.3692 3.5C30.3976 3.5 30.426 3.5 30.4543 3.5C30.4827 3.5 30.511 3.5 30.5393 3.5C30.5676 3.5 30.5958 3.5 30.6241 3.5C30.6523 3.5 30.6805 3.5 30.7087 3.5C30.7369 3.5 30.765 3.5 30.7932 3.5C30.8213 3.5 30.8494 3.5 30.8775 3.5C30.9055 3.5 30.9336 3.5 30.9616 3.5C30.9897 3.5 31.0176 3.5 31.0456 3.5C31.0736 3.5 31.1015 3.5 31.1295 3.5C31.1574 3.5 31.1853 3.5 31.2131 3.5C31.241 3.5 31.2688 3.5 31.2966 3.5C31.3244 3.5 31.3522 3.5 31.38 3.5C31.4077 3.5 31.4354 3.5 31.4631 3.5C31.4908 3.5 31.5185 3.5 31.5461 3.5C31.5738 3.5 31.6014 3.5 31.629 3.5C31.6566 3.5 31.6841 3.5 31.7117 3.5C31.7392 3.5 31.7667 3.5 31.7941 3.5C31.8216 3.5 31.8491 3.5 31.8765 3.5C31.9039 3.5 31.9313 3.5 31.9586 3.5C31.986 3.5 32.0133 3.5 32.0406 3.5C32.0679 3.5 32.0951 3.5 32.1224 3.5C32.1496 3.5 32.1768 3.5 32.204 3.5C32.2312 3.5 32.2583 3.5 32.2854 3.5C32.3125 3.5 32.3396 3.5 32.3667 3.5C32.3937 3.5 32.4207 3.5 32.4477 3.5C32.4747 3.5 32.5017 3.5 32.5286 3.5C32.5555 3.5 32.5824 3.5 32.6093 3.5C32.6362 3.5 32.663 3.5 32.6898 3.5C32.7166 3.5 32.7434 3.5 32.7702 3.5C32.7969 3.5 32.8236 3.5 32.8503 3.5C32.877 3.5 32.9036 3.5 32.9302 3.5C32.9568 3.5 32.9834 3.5 33.01 3.5C33.0365 3.5 33.0631 3.5 33.0895 3.5C33.116 3.5 33.1425 3.5 33.1689 3.5C33.1953 3.5 33.2217 3.5 33.2481 3.5C33.2744 3.5 33.3008 3.5 33.327 3.5C33.3533 3.5 33.3796 3.5 33.4058 3.5C33.432 3.5 33.4582 3.5 33.4844 3.5C33.5106 3.5 33.5367 3.5 33.5628 3.5C33.5889 3.5 33.6149 3.5 33.6409 3.5C33.667 3.5 33.6929 3.5 33.7189 3.5C33.7449 3.5 33.7708 3.5 33.7967 3.5C33.8225 3.5 33.8484 3.5 33.8742 3.5C33.9 3.5 33.9258 3.5 33.9516 3.5C33.9773 3.5 34.003 3.5 34.0287 3.5C34.0544 3.5 34.08 3.5 34.1056 3.5C34.1312 3.5 34.1568 3.5 34.1823 3.5C34.2079 3.5 34.2334 3.5 34.2588 3.5C34.2843 3.5 34.3097 3.5 34.3351 3.5C34.3605 3.5 34.3859 3.5 34.4112 3.5C34.4365 3.5 34.4618 3.5 34.4871 3.5C34.5123 3.5 34.5375 3.5 34.5627 3.5C34.5879 3.5 34.613 3.5 34.6381 3.5C34.6632 3.5 34.6883 3.5 34.7133 3.5C34.7383 3.5 34.7633 3.5 34.7883 3.5C34.8132 3.5 34.8382 3.5 34.863 3.5C34.8879 3.5 34.9128 3.5 34.9376 3.5C34.9624 3.5 34.9871 3.5 35.0119 3.5C35.0366 3.5 35.0613 3.5 35.0859 3.5C35.1106 3.5 35.1352 3.5 35.1598 3.5C35.1844 3.5 35.2089 3.5 35.2334 3.5C35.2579 3.5 35.2824 3.5 35.3068 3.5C35.3312 3.5 35.3556 3.5 35.3799 3.5C35.4043 3.5 35.4286 3.5 35.4528 3.5C35.4771 3.5 35.5013 3.5 35.5255 3.5C35.5497 3.5 35.5739 3.5 35.598 3.5C35.6221 3.5 35.6461 3.5 35.6702 3.5C35.6942 3.5 35.7182 3.5 35.7421 3.5C35.7661 3.5 35.79 3.5 35.8139 3.5C35.8377 3.5 35.8616 3.5 35.8853 3.5C35.9091 3.5 35.9329 3.5 35.9566 3.5C35.9803 3.5 36.0039 3.5 36.0276 3.5C36.0512 3.5 36.0748 3.5 36.0983 3.5C36.1219 3.5 36.1454 3.5 36.1688 3.5C36.1923 3.5 36.2157 3.5 36.2391 3.5C36.2625 3.5 36.2858 3.5 36.3091 3.5C36.3324 3.5 36.3556 3.5 36.3788 3.5C36.402 3.5 36.4252 3.5 36.4483 3.5C36.4715 3.5 36.4945 3.5 36.5176 3.5C36.5406 3.5 36.5636 3.5 36.5866 3.5C36.6095 3.5 36.6324 3.5 36.6553 3.5C36.6782 3.5 36.701 3.5 36.7238 3.5C36.7466 3.5 36.7693 3.5 36.792 3.5C36.8147 3.5 36.8373 3.5 36.8599 3.5C36.8826 3.5 36.9051 3.5 36.9276 3.5C36.9502 3.5 36.9726 3.5 36.9951 3.5C37.0175 3.5 37.0399 3.5 37.0622 3.5C37.0846 3.5 37.1069 3.5 37.1291 3.5C37.1514 3.5 37.1736 3.5 37.1958 3.5C37.2179 3.5 37.2401 3.5 37.2621 3.5C37.2842 3.5 37.3062 3.5 37.3282 3.5C37.3502 3.5 37.3722 3.5 37.3941 3.5C37.416 3.5 37.4378 3.5 37.4596 3.5C37.4814 3.5 37.5032 3.5 37.5249 3.5C37.5466 3.5 37.5683 3.5 37.5899 3.5C37.6115 3.5 37.6331 3.5 37.6546 3.5C37.6761 3.5 37.6976 3.5 37.7191 3.5C37.7405 3.5 37.7619 3.5 37.7832 3.5C37.8046 3.5 37.8259 3.5 37.8471 3.5C37.8684 3.5 37.8896 3.5 37.9107 3.5C37.9319 3.5 37.953 3.5 37.9741 3.5C37.9951 3.5 38.0161 3.5 38.0371 3.5C38.0581 3.5 38.079 3.5 38.0999 3.5C38.1207 3.5 38.1416 3.5 38.1623 3.5C38.1831 3.5 38.2038 3.5 38.2245 3.5C38.2452 3.5 38.2658 3.5 38.2864 3.5C38.307 3.5 38.3275 3.5 38.348 3.5C38.3685 3.5 38.3889 3.5 38.4093 3.5C38.4297 3.5 38.45 3.5 38.4703 3.5C38.4906 3.5 38.5109 3.5 38.5311 3.5C38.5512 3.5 38.5714 3.5 38.5915 3.5C38.6116 3.5 38.6316 3.5 38.6516 3.5C38.6716 3.5 38.6915 3.5 38.7114 3.5C38.7313 3.5 38.7512 3.5 38.771 3.5C38.7908 3.5 38.8105 3.5 38.8302 3.5C38.8499 3.5 38.8695 3.5 38.8891 3.5C38.9087 3.5 38.9282 3.5 38.9477 3.5C38.9672 3.5 38.9867 3.5 39.006 3.5C39.0254 3.5 39.0448 3.5 39.0641 3.5C39.0833 3.5 39.1026 3.5 39.1218 3.5C39.1409 3.5 39.1601 3.5 39.1791 3.5C39.1982 3.5 39.2173 3.5 39.2362 3.5C39.2552 3.5 39.2741 3.5 39.293 3.5C39.3119 3.5 39.3307 3.5 39.3495 3.5C39.3682 3.5 39.3869 3.5 39.4056 3.5C39.4243 3.5 39.4429 3.5 39.4614 3.5C39.48 3.5 39.4985 3.5 39.5169 3.5C39.5354 3.5 39.5538 3.5 39.5721 3.5C39.5905 3.5 39.6088 3.5 39.627 3.5C39.6452 3.5 39.6634 3.5 39.6815 3.5C39.6997 3.5 39.7177 3.5 39.7358 3.5C39.7538 3.5 39.7718 3.5 39.7897 3.5C39.8076 3.5 39.8254 3.5 39.8432 3.5C39.8611 3.5 39.8788 3.5 39.8965 3.5C39.9142 3.5 39.9318 3.5 39.9494 3.5C39.967 3.5 39.9845 3.5 40.002 3.5C40.0195 3.5 40.0369 3.5 40.0543 3.5C40.0716 3.5 40.089 3.5 40.1062 3.5C40.1235 3.5 40.1407 3.5 40.1578 3.5C40.175 3.5 40.192 3.5 40.2091 3.5C40.2261 3.5 40.2431 3.5 40.26 3.5C40.2769 3.5 40.2938 3.5 40.3106 3.5C40.3274 3.5 40.3442 3.5 40.3609 3.5C40.3775 3.5 40.3942 3.5 40.4108 3.5C40.4273 3.5 40.4439 3.5 40.4603 3.5C40.4768 3.5 40.4932 3.5 40.5096 3.5C40.5259 3.5 40.5422 3.5 40.5585 3.5C40.5747 3.5 40.5909 3.5 40.607 3.5C40.6231 3.5 40.6392 3.5 40.6552 3.5C40.6712 3.5 40.6872 3.5 40.703 3.5C40.7189 3.5 40.7348 3.5 40.7505 3.5C40.7663 3.5 40.782 3.5 40.7977 3.5C40.8134 3.5 40.829 3.5 40.8445 3.5C40.86 3.5 40.8755 3.5 40.8909 3.5C40.9064 3.5 40.9217 3.5 40.937 3.5C40.9523 3.5 40.9676 3.5 40.9828 3.5C40.998 3.5 41.0131 3.5 41.0282 3.5C41.0432 3.5 41.0582 3.5 41.0732 3.5C41.0881 3.5 41.103 3.5 41.1178 3.5C41.1327 3.5 41.1474 3.5 41.1621 3.5C41.1768 3.5 41.1915 3.5 41.2061 3.5C41.2207 3.5 41.2352 3.5 41.2497 3.5C41.2641 3.5 41.2785 3.5 41.2929 3.5C41.3072 3.5 41.3215 3.5 41.3357 3.5C41.3499 3.5 41.3641 3.5 41.3782 3.5C41.3923 3.5 41.4063 3.5 41.4203 3.5C41.4343 3.5 41.4482 3.5 41.462 3.5C41.4759 3.5 41.4897 3.5 41.5034 3.5C41.5171 3.5 41.5308 3.5 41.5444 3.5C41.558 3.5 41.5716 3.5 41.585 3.5C41.5985 3.5 41.6119 3.5 41.6253 3.5C41.6386 3.5 41.6519 3.5 41.6652 3.5C41.6784 3.5 41.6915 3.5 41.7046 3.5C41.7177 3.5 41.7308 3.5 41.7438 3.5C41.7567 3.5 41.7696 3.5 41.7825 3.5C41.7953 3.5 41.8081 3.5 41.8208 3.5C41.8336 3.5 41.8462 3.5 41.8588 3.5C41.8714 3.5 41.8839 3.5 41.8964 3.5C41.9089 3.5 41.9213 3.5 41.9336 3.5C41.9459 3.5 41.9582 3.5 41.9704 3.5C41.9826 3.5 41.9948 3.5 42.0068 3.5C42.0189 3.5 42.0309 3.5 42.0429 3.5C42.0548 3.5 42.0667 3.5 42.0785 3.5V0.5ZM3.06066 49.945L10.6226 42.383L8.50132 40.2617L0.93934 47.8236L3.06066 49.945ZM8.63525 42.5018L19.222 50.82L21.0755 48.461L10.4887 40.1428L8.63525 42.5018ZM20.9349 50.918L30.7655 44.8684L29.1932 42.3134L19.3626 48.363L20.9349 50.918ZM29.1473 44.839L31.4159 46.3514L33.08 43.8552L30.8114 42.3428L29.1473 44.839Z" fill="#0B582A"/>
<path d="M50.3843 22.4172C50.3843 21.5888 49.7127 20.9172 48.8843 20.9172C48.0559 20.9172 47.3843 21.5888 47.3843 22.4172H50.3843ZM48.8843 43.5908H47.3843V43.6656L47.3917 43.74L48.8843 43.5908ZM67.7892 52.6528C68.6177 52.6528 69.2892 51.9812 69.2892 51.1528C69.2892 50.3243 68.6177 49.6528 67.7892 49.6528V52.6528ZM47.3843 22.4172V43.5908H50.3843V22.4172H47.3843ZM47.3917 43.74C47.5334 45.1566 48.0352 47.2772 49.1316 49.0925C50.2425 50.9318 52.1055 52.6528 54.9339 52.6528V49.6528C53.5275 49.6528 52.4917 48.8531 51.6995 47.5415C50.8929 46.206 50.4872 44.5456 50.3768 43.4415L47.3917 43.74ZM54.9339 52.6528C54.9421 52.6528 54.9504 52.6528 54.9587 52.6528C54.967 52.6528 54.9753 52.6528 54.9836 52.6528C54.9919 52.6528 55.0002 52.6528 55.0085 52.6528C55.0168 52.6528 55.0251 52.6528 55.0335 52.6528C55.0418 52.6528 55.0501 52.6528 55.0585 52.6528C55.0668 52.6528 55.0751 52.6528 55.0835 52.6528C55.0919 52.6528 55.1002 52.6528 55.1086 52.6528C55.117 52.6528 55.1253 52.6528 55.1337 52.6528C55.1421 52.6528 55.1505 52.6528 55.1589 52.6528C55.1673 52.6528 55.1757 52.6528 55.1841 52.6528C55.1925 52.6528 55.2009 52.6528 55.2093 52.6528C55.2178 52.6528 55.2262 52.6528 55.2346 52.6528C55.2431 52.6528 55.2515 52.6528 55.2599 52.6528C55.2684 52.6528 55.2769 52.6528 55.2853 52.6528C55.2938 52.6528 55.3022 52.6528 55.3107 52.6528C55.3192 52.6528 55.3277 52.6528 55.3362 52.6528C55.3447 52.6528 55.3531 52.6528 55.3617 52.6528C55.3702 52.6528 55.3787 52.6528 55.3872 52.6528C55.3957 52.6528 55.4042 52.6528 55.4127 52.6528C55.4213 52.6528 55.4298 52.6528 55.4383 52.6528C55.4469 52.6528 55.4554 52.6528 55.464 52.6528C55.4725 52.6528 55.4811 52.6528 55.4896 52.6528C55.4982 52.6528 55.5068 52.6528 55.5154 52.6528C55.5239 52.6528 55.5325 52.6528 55.5411 52.6528C55.5497 52.6528 55.5583 52.6528 55.5669 52.6528C55.5755 52.6528 55.5841 52.6528 55.5927 52.6528C55.6013 52.6528 55.6099 52.6528 55.6186 52.6528C55.6272 52.6528 55.6358 52.6528 55.6445 52.6528C55.6531 52.6528 55.6617 52.6528 55.6704 52.6528C55.679 52.6528 55.6877 52.6528 55.6964 52.6528C55.705 52.6528 55.7137 52.6528 55.7224 52.6528C55.731 52.6528 55.7397 52.6528 55.7484 52.6528C55.7571 52.6528 55.7658 52.6528 55.7745 52.6528C55.7832 52.6528 55.7919 52.6528 55.8006 52.6528C55.8093 52.6528 55.818 52.6528 55.8267 52.6528C55.8354 52.6528 55.8442 52.6528 55.8529 52.6528C55.8616 52.6528 55.8704 52.6528 55.8791 52.6528C55.8878 52.6528 55.8966 52.6528 55.9053 52.6528C55.9141 52.6528 55.9229 52.6528 55.9316 52.6528C55.9404 52.6528 55.9492 52.6528 55.9579 52.6528C55.9667 52.6528 55.9755 52.6528 55.9843 52.6528C55.9931 52.6528 56.0019 52.6528 56.0106 52.6528C56.0194 52.6528 56.0282 52.6528 56.0371 52.6528C56.0459 52.6528 56.0547 52.6528 56.0635 52.6528C56.0723 52.6528 56.0811 52.6528 56.09 52.6528C56.0988 52.6528 56.1076 52.6528 56.1165 52.6528C56.1253 52.6528 56.1342 52.6528 56.143 52.6528C56.1519 52.6528 56.1607 52.6528 56.1696 52.6528C56.1784 52.6528 56.1873 52.6528 56.1962 52.6528C56.205 52.6528 56.2139 52.6528 56.2228 52.6528C56.2317 52.6528 56.2406 52.6528 56.2495 52.6528C56.2583 52.6528 56.2672 52.6528 56.2761 52.6528C56.285 52.6528 56.294 52.6528 56.3029 52.6528C56.3118 52.6528 56.3207 52.6528 56.3296 52.6528C56.3385 52.6528 56.3475 52.6528 56.3564 52.6528C56.3653 52.6528 56.3743 52.6528 56.3832 52.6528C56.3921 52.6528 56.4011 52.6528 56.41 52.6528C56.419 52.6528 56.4279 52.6528 56.4369 52.6528C56.4459 52.6528 56.4548 52.6528 56.4638 52.6528C56.4728 52.6528 56.4817 52.6528 56.4907 52.6528C56.4997 52.6528 56.5087 52.6528 56.5177 52.6528C56.5267 52.6528 56.5356 52.6528 56.5446 52.6528C56.5536 52.6528 56.5626 52.6528 56.5716 52.6528C56.5807 52.6528 56.5897 52.6528 56.5987 52.6528C56.6077 52.6528 56.6167 52.6528 56.6257 52.6528C56.6348 52.6528 56.6438 52.6528 56.6528 52.6528C56.6619 52.6528 56.6709 52.6528 56.6799 52.6528C56.689 52.6528 56.698 52.6528 56.7071 52.6528C56.7161 52.6528 56.7252 52.6528 56.7342 52.6528C56.7433 52.6528 56.7524 52.6528 56.7614 52.6528C56.7705 52.6528 56.7796 52.6528 56.7887 52.6528C56.7977 52.6528 56.8068 52.6528 56.8159 52.6528C56.825 52.6528 56.8341 52.6528 56.8432 52.6528C56.8523 52.6528 56.8614 52.6528 56.8705 52.6528C56.8796 52.6528 56.8887 52.6528 56.8978 52.6528C56.9069 52.6528 56.916 52.6528 56.9251 52.6528C56.9342 52.6528 56.9434 52.6528 56.9525 52.6528C56.9616 52.6528 56.9707 52.6528 56.9799 52.6528C56.989 52.6528 56.9982 52.6528 57.0073 52.6528C57.0164 52.6528 57.0256 52.6528 57.0347 52.6528C57.0439 52.6528 57.053 52.6528 57.0622 52.6528C57.0714 52.6528 57.0805 52.6528 57.0897 52.6528C57.0988 52.6528 57.108 52.6528 57.1172 52.6528C57.1264 52.6528 57.1355 52.6528 57.1447 52.6528C57.1539 52.6528 57.1631 52.6528 57.1723 52.6528C57.1815 52.6528 57.1906 52.6528 57.1998 52.6528C57.209 52.6528 57.2182 52.6528 57.2274 52.6528C57.2366 52.6528 57.2458 52.6528 57.2551 52.6528C57.2643 52.6528 57.2735 52.6528 57.2827 52.6528C57.2919 52.6528 57.3011 52.6528 57.3103 52.6528C57.3196 52.6528 57.3288 52.6528 57.338 52.6528C57.3473 52.6528 57.3565 52.6528 57.3657 52.6528C57.375 52.6528 57.3842 52.6528 57.3934 52.6528C57.4027 52.6528 57.4119 52.6528 57.4212 52.6528C57.4304 52.6528 57.4397 52.6528 57.4489 52.6528C57.4582 52.6528 57.4675 52.6528 57.4767 52.6528C57.486 52.6528 57.4953 52.6528 57.5045 52.6528C57.5138 52.6528 57.5231 52.6528 57.5323 52.6528C57.5416 52.6528 57.5509 52.6528 57.5602 52.6528C57.5695 52.6528 57.5788 52.6528 57.588 52.6528C57.5973 52.6528 57.6066 52.6528 57.6159 52.6528C57.6252 52.6528 57.6345 52.6528 57.6438 52.6528C57.6531 52.6528 57.6624 52.6528 57.6717 52.6528C57.681 52.6528 57.6903 52.6528 57.6996 52.6528C57.709 52.6528 57.7183 52.6528 57.7276 52.6528C57.7369 52.6528 57.7462 52.6528 57.7556 52.6528C57.7649 52.6528 57.7742 52.6528 57.7835 52.6528C57.7929 52.6528 57.8022 52.6528 57.8115 52.6528C57.8209 52.6528 57.8302 52.6528 57.8395 52.6528C57.8489 52.6528 57.8582 52.6528 57.8676 52.6528C57.8769 52.6528 57.8863 52.6528 57.8956 52.6528C57.905 52.6528 57.9143 52.6528 57.9237 52.6528C57.933 52.6528 57.9424 52.6528 57.9517 52.6528C57.9611 52.6528 57.9705 52.6528 57.9798 52.6528C57.9892 52.6528 57.9986 52.6528 58.0079 52.6528C58.0173 52.6528 58.0267 52.6528 58.0361 52.6528C58.0454 52.6528 58.0548 52.6528 58.0642 52.6528C58.0736 52.6528 58.083 52.6528 58.0923 52.6528C58.1017 52.6528 58.1111 52.6528 58.1205 52.6528C58.1299 52.6528 58.1393 52.6528 58.1487 52.6528C58.1581 52.6528 58.1675 52.6528 58.1769 52.6528C58.1863 52.6528 58.1957 52.6528 58.2051 52.6528C58.2145 52.6528 58.2239 52.6528 58.2333 52.6528C58.2427 52.6528 58.2521 52.6528 58.2615 52.6528C58.2709 52.6528 58.2804 52.6528 58.2898 52.6528C58.2992 52.6528 58.3086 52.6528 58.318 52.6528C58.3274 52.6528 58.3369 52.6528 58.3463 52.6528C58.3557 52.6528 58.3651 52.6528 58.3746 52.6528C58.384 52.6528 58.3934 52.6528 58.4029 52.6528C58.4123 52.6528 58.4217 52.6528 58.4312 52.6528C58.4406 52.6528 58.45 52.6528 58.4595 52.6528C58.4689 52.6528 58.4783 52.6528 58.4878 52.6528C58.4972 52.6528 58.5067 52.6528 58.5161 52.6528C58.5256 52.6528 58.535 52.6528 58.5445 52.6528C58.5539 52.6528 58.5634 52.6528 58.5728 52.6528C58.5823 52.6528 58.5917 52.6528 58.6012 52.6528C58.6106 52.6528 58.6201 52.6528 58.6296 52.6528C58.639 52.6528 58.6485 52.6528 58.6579 52.6528C58.6674 52.6528 58.6769 52.6528 58.6863 52.6528C58.6958 52.6528 58.7053 52.6528 58.7147 52.6528C58.7242 52.6528 58.7337 52.6528 58.7431 52.6528C58.7526 52.6528 58.7621 52.6528 58.7716 52.6528C58.781 52.6528 58.7905 52.6528 58.8 52.6528C58.8095 52.6528 58.8189 52.6528 58.8284 52.6528C58.8379 52.6528 58.8474 52.6528 58.8569 52.6528C58.8663 52.6528 58.8758 52.6528 58.8853 52.6528C58.8948 52.6528 58.9043 52.6528 58.9138 52.6528C58.9232 52.6528 58.9327 52.6528 58.9422 52.6528C58.9517 52.6528 58.9612 52.6528 58.9707 52.6528C58.9802 52.6528 58.9897 52.6528 58.9992 52.6528C59.0087 52.6528 59.0182 52.6528 59.0276 52.6528C59.0371 52.6528 59.0466 52.6528 59.0561 52.6528C59.0656 52.6528 59.0751 52.6528 59.0846 52.6528C59.0941 52.6528 59.1036 52.6528 59.1131 52.6528C59.1226 52.6528 59.1321 52.6528 59.1416 52.6528C59.1511 52.6528 59.1606 52.6528 59.1701 52.6528C59.1796 52.6528 59.1891 52.6528 59.1987 52.6528C59.2082 52.6528 59.2177 52.6528 59.2272 52.6528C59.2367 52.6528 59.2462 52.6528 59.2557 52.6528C59.2652 52.6528 59.2747 52.6528 59.2842 52.6528C59.2937 52.6528 59.3032 52.6528 59.3128 52.6528C59.3223 52.6528 59.3318 52.6528 59.3413 52.6528C59.3508 52.6528 59.3603 52.6528 59.3698 52.6528C59.3793 52.6528 59.3888 52.6528 59.3984 52.6528C59.4079 52.6528 59.4174 52.6528 59.4269 52.6528C59.4364 52.6528 59.4459 52.6528 59.4554 52.6528C59.465 52.6528 59.4745 52.6528 59.484 52.6528C59.4935 52.6528 59.503 52.6528 59.5125 52.6528C59.5221 52.6528 59.5316 52.6528 59.5411 52.6528C59.5506 52.6528 59.5601 52.6528 59.5696 52.6528C59.5792 52.6528 59.5887 52.6528 59.5982 52.6528C59.6077 52.6528 59.6172 52.6528 59.6268 52.6528C59.6363 52.6528 59.6458 52.6528 59.6553 52.6528C59.6648 52.6528 59.6744 52.6528 59.6839 52.6528C59.6934 52.6528 59.7029 52.6528 59.7124 52.6528C59.7219 52.6528 59.7315 52.6528 59.741 52.6528C59.7505 52.6528 59.76 52.6528 59.7695 52.6528C59.7791 52.6528 59.7886 52.6528 59.7981 52.6528C59.8076 52.6528 59.8171 52.6528 59.8267 52.6528C59.8362 52.6528 59.8457 52.6528 59.8552 52.6528C59.8647 52.6528 59.8742 52.6528 59.8838 52.6528C59.8933 52.6528 59.9028 52.6528 59.9123 52.6528C59.9218 52.6528 59.9314 52.6528 59.9409 52.6528C59.9504 52.6528 59.9599 52.6528 59.9694 52.6528C59.9789 52.6528 59.9884 52.6528 59.998 52.6528C60.0075 52.6528 60.017 52.6528 60.0265 52.6528C60.036 52.6528 60.0455 52.6528 60.0551 52.6528C60.0646 52.6528 60.0741 52.6528 60.0836 52.6528C60.0931 52.6528 60.1026 52.6528 60.1121 52.6528C60.1216 52.6528 60.1311 52.6528 60.1407 52.6528C60.1502 52.6528 60.1597 52.6528 60.1692 52.6528C60.1787 52.6528 60.1882 52.6528 60.1977 52.6528C60.2072 52.6528 60.2167 52.6528 60.2262 52.6528C60.2357 52.6528 60.2452 52.6528 60.2548 52.6528C60.2643 52.6528 60.2738 52.6528 60.2833 52.6528C60.2928 52.6528 60.3023 52.6528 60.3118 52.6528C60.3213 52.6528 60.3308 52.6528 60.3403 52.6528C60.3498 52.6528 60.3593 52.6528 60.3688 52.6528C60.3783 52.6528 60.3878 52.6528 60.3973 52.6528C60.4068 52.6528 60.4163 52.6528 60.4258 52.6528C60.4352 52.6528 60.4447 52.6528 60.4542 52.6528C60.4637 52.6528 60.4732 52.6528 60.4827 52.6528C60.4922 52.6528 60.5017 52.6528 60.5112 52.6528C60.5207 52.6528 60.5301 52.6528 60.5396 52.6528C60.5491 52.6528 60.5586 52.6528 60.5681 52.6528C60.5776 52.6528 60.5871 52.6528 60.5965 52.6528C60.606 52.6528 60.6155 52.6528 60.625 52.6528C60.6345 52.6528 60.6439 52.6528 60.6534 52.6528C60.6629 52.6528 60.6724 52.6528 60.6818 52.6528C60.6913 52.6528 60.7008 52.6528 60.7102 52.6528C60.7197 52.6528 60.7292 52.6528 60.7387 52.6528C60.7481 52.6528 60.7576 52.6528 60.7671 52.6528C60.7765 52.6528 60.786 52.6528 60.7954 52.6528C60.8049 52.6528 60.8144 52.6528 60.8238 52.6528C60.8333 52.6528 60.8427 52.6528 60.8522 52.6528C60.8616 52.6528 60.8711 52.6528 60.8806 52.6528C60.89 52.6528 60.8995 52.6528 60.9089 52.6528C60.9184 52.6528 60.9278 52.6528 60.9372 52.6528C60.9467 52.6528 60.9561 52.6528 60.9656 52.6528C60.975 52.6528 60.9845 52.6528 60.9939 52.6528C61.0033 52.6528 61.0128 52.6528 61.0222 52.6528C61.0316 52.6528 61.0411 52.6528 61.0505 52.6528C61.0599 52.6528 61.0694 52.6528 61.0788 52.6528C61.0882 52.6528 61.0976 52.6528 61.1071 52.6528C61.1165 52.6528 61.1259 52.6528 61.1353 52.6528C61.1448 52.6528 61.1542 52.6528 61.1636 52.6528C61.173 52.6528 61.1824 52.6528 61.1918 52.6528C61.2012 52.6528 61.2106 52.6528 61.2201 52.6528C61.2295 52.6528 61.2389 52.6528 61.2483 52.6528C61.2577 52.6528 61.2671 52.6528 61.2765 52.6528C61.2859 52.6528 61.2953 52.6528 61.3047 52.6528C61.314 52.6528 61.3234 52.6528 61.3328 52.6528C61.3422 52.6528 61.3516 52.6528 61.361 52.6528C61.3704 52.6528 61.3798 52.6528 61.3891 52.6528C61.3985 52.6528 61.4079 52.6528 61.4173 52.6528C61.4266 52.6528 61.436 52.6528 61.4454 52.6528C61.4548 52.6528 61.4641 52.6528 61.4735 52.6528C61.4829 52.6528 61.4922 52.6528 61.5016 52.6528C61.5109 52.6528 61.5203 52.6528 61.5297 52.6528C61.539 52.6528 61.5484 52.6528 61.5577 52.6528C61.5671 52.6528 61.5764 52.6528 61.5857 52.6528C61.5951 52.6528 61.6044 52.6528 61.6138 52.6528C61.6231 52.6528 61.6324 52.6528 61.6418 52.6528C61.6511 52.6528 61.6604 52.6528 61.6698 52.6528C61.6791 52.6528 61.6884 52.6528 61.6978 52.6528C61.7071 52.6528 61.7164 52.6528 61.7257 52.6528C61.735 52.6528 61.7443 52.6528 61.7537 52.6528C61.763 52.6528 61.7723 52.6528 61.7816 52.6528C61.7909 52.6528 61.8002 52.6528 61.8095 52.6528C61.8188 52.6528 61.8281 52.6528 61.8374 52.6528C61.8467 52.6528 61.856 52.6528 61.8652 52.6528C61.8745 52.6528 61.8838 52.6528 61.8931 52.6528C61.9024 52.6528 61.9117 52.6528 61.9209 52.6528C61.9302 52.6528 61.9395 52.6528 61.9487 52.6528C61.958 52.6528 61.9673 52.6528 61.9765 52.6528C61.9858 52.6528 61.9951 52.6528 62.0043 52.6528C62.0136 52.6528 62.0228 52.6528 62.0321 52.6528C62.0413 52.6528 62.0506 52.6528 62.0598 52.6528C62.0691 52.6528 62.0783 52.6528 62.0875 52.6528C62.0968 52.6528 62.106 52.6528 62.1152 52.6528C62.1245 52.6528 62.1337 52.6528 62.1429 52.6528C62.1521 52.6528 62.1613 52.6528 62.1706 52.6528C62.1798 52.6528 62.189 52.6528 62.1982 52.6528C62.2074 52.6528 62.2166 52.6528 62.2258 52.6528C62.235 52.6528 62.2442 52.6528 62.2534 52.6528C62.2626 52.6528 62.2718 52.6528 62.281 52.6528C62.2901 52.6528 62.2993 52.6528 62.3085 52.6528C62.3177 52.6528 62.3269 52.6528 62.336 52.6528C62.3452 52.6528 62.3544 52.6528 62.3635 52.6528C62.3727 52.6528 62.3819 52.6528 62.391 52.6528C62.4002 52.6528 62.4093 52.6528 62.4185 52.6528C62.4276 52.6528 62.4368 52.6528 62.4459 52.6528C62.455 52.6528 62.4642 52.6528 62.4733 52.6528C62.4825 52.6528 62.4916 52.6528 62.5007 52.6528C62.5098 52.6528 62.5189 52.6528 62.5281 52.6528C62.5372 52.6528 62.5463 52.6528 62.5554 52.6528C62.5645 52.6528 62.5736 52.6528 62.5827 52.6528C62.5918 52.6528 62.6009 52.6528 62.61 52.6528C62.6191 52.6528 62.6282 52.6528 62.6373 52.6528C62.6464 52.6528 62.6554 52.6528 62.6645 52.6528C62.6736 52.6528 62.6827 52.6528 62.6917 52.6528C62.7008 52.6528 62.7099 52.6528 62.7189 52.6528C62.728 52.6528 62.737 52.6528 62.7461 52.6528C62.7551 52.6528 62.7642 52.6528 62.7732 52.6528C62.7822 52.6528 62.7913 52.6528 62.8003 52.6528C62.8093 52.6528 62.8184 52.6528 62.8274 52.6528C62.8364 52.6528 62.8454 52.6528 62.8545 52.6528C62.8635 52.6528 62.8725 52.6528 62.8815 52.6528C62.8905 52.6528 62.8995 52.6528 62.9085 52.6528C62.9175 52.6528 62.9265 52.6528 62.9355 52.6528C62.9444 52.6528 62.9534 52.6528 62.9624 52.6528C62.9714 52.6528 62.9803 52.6528 62.9893 52.6528C62.9983 52.6528 63.0072 52.6528 63.0162 52.6528C63.0252 52.6528 63.0341 52.6528 63.0431 52.6528C63.052 52.6528 63.061 52.6528 63.0699 52.6528C63.0788 52.6528 63.0878 52.6528 63.0967 52.6528C63.1056 52.6528 63.1145 52.6528 63.1235 52.6528C63.1324 52.6528 63.1413 52.6528 63.1502 52.6528C63.1591 52.6528 63.168 52.6528 63.1769 52.6528C63.1858 52.6528 63.1947 52.6528 63.2036 52.6528C63.2125 52.6528 63.2214 52.6528 63.2303 52.6528C63.2391 52.6528 63.248 52.6528 63.2569 52.6528C63.2658 52.6528 63.2746 52.6528 63.2835 52.6528C63.2923 52.6528 63.3012 52.6528 63.31 52.6528C63.3189 52.6528 63.3277 52.6528 63.3366 52.6528C63.3454 52.6528 63.3542 52.6528 63.3631 52.6528C63.3719 52.6528 63.3807 52.6528 63.3895 52.6528C63.3983 52.6528 63.4072 52.6528 63.416 52.6528C63.4248 52.6528 63.4336 52.6528 63.4424 52.6528C63.4512 52.6528 63.4599 52.6528 63.4687 52.6528C63.4775 52.6528 63.4863 52.6528 63.4951 52.6528C63.5038 52.6528 63.5126 52.6528 63.5214 52.6528C63.5301 52.6528 63.5389 52.6528 63.5476 52.6528C63.5564 52.6528 63.5651 52.6528 63.5739 52.6528C63.5826 52.6528 63.5914 52.6528 63.6001 52.6528C63.6088 52.6528 63.6175 52.6528 63.6262 52.6528C63.635 52.6528 63.6437 52.6528 63.6524 52.6528C63.6611 52.6528 63.6698 52.6528 63.6785 52.6528C63.6872 52.6528 63.6959 52.6528 63.7045 52.6528C63.7132 52.6528 63.7219 52.6528 63.7306 52.6528C63.7392 52.6528 63.7479 52.6528 63.7566 52.6528C63.7652 52.6528 63.7739 52.6528 63.7825 52.6528C63.7912 52.6528 63.7998 52.6528 63.8085 52.6528C63.8171 52.6528 63.8257 52.6528 63.8343 52.6528C63.843 52.6528 63.8516 52.6528 63.8602 52.6528C63.8688 52.6528 63.8774 52.6528 63.886 52.6528C63.8946 52.6528 63.9032 52.6528 63.9118 52.6528C63.9204 52.6528 63.929 52.6528 63.9375 52.6528C63.9461 52.6528 63.9547 52.6528 63.9632 52.6528C63.9718 52.6528 63.9804 52.6528 63.9889 52.6528C63.9975 52.6528 64.006 52.6528 64.0145 52.6528C64.0231 52.6528 64.0316 52.6528 64.0401 52.6528C64.0487 52.6528 64.0572 52.6528 64.0657 52.6528C64.0742 52.6528 64.0827 52.6528 64.0912 52.6528C64.0997 52.6528 64.1082 52.6528 64.1167 52.6528C64.1252 52.6528 64.1336 52.6528 64.1421 52.6528C64.1506 52.6528 64.1591 52.6528 64.1675 52.6528C64.176 52.6528 64.1844 52.6528 64.1929 52.6528C64.2013 52.6528 64.2098 52.6528 64.2182 52.6528C64.2266 52.6528 64.2351 52.6528 64.2435 52.6528C64.2519 52.6528 64.2603 52.6528 64.2687 52.6528C64.2771 52.6528 64.2855 52.6528 64.2939 52.6528C64.3023 52.6528 64.3107 52.6528 64.3191 52.6528C64.3274 52.6528 64.3358 52.6528 64.3442 52.6528C64.3526 52.6528 64.3609 52.6528 64.3693 52.6528C64.3776 52.6528 64.386 52.6528 64.3943 52.6528C64.4026 52.6528 64.411 52.6528 64.4193 52.6528C64.4276 52.6528 64.4359 52.6528 64.4442 52.6528C64.4526 52.6528 64.4609 52.6528 64.4692 52.6528C64.4775 52.6528 64.4857 52.6528 64.494 52.6528C64.5023 52.6528 64.5106 52.6528 64.5189 52.6528C64.5271 52.6528 64.5354 52.6528 64.5436 52.6528C64.5519 52.6528 64.5601 52.6528 64.5684 52.6528C64.5766 52.6528 64.5849 52.6528 64.5931 52.6528C64.6013 52.6528 64.6095 52.6528 64.6177 52.6528C64.6259 52.6528 64.6341 52.6528 64.6423 52.6528C64.6505 52.6528 64.6587 52.6528 64.6669 52.6528C64.6751 52.6528 64.6833 52.6528 64.6914 52.6528C64.6996 52.6528 64.7078 52.6528 64.7159 52.6528C64.7241 52.6528 64.7322 52.6528 64.7403 52.6528C64.7485 52.6528 64.7566 52.6528 64.7647 52.6528C64.7728 52.6528 64.781 52.6528 64.7891 52.6528C64.7972 52.6528 64.8053 52.6528 64.8134 52.6528C64.8215 52.6528 64.8295 52.6528 64.8376 52.6528C64.8457 52.6528 64.8538 52.6528 64.8618 52.6528C64.8699 52.6528 64.8779 52.6528 64.886 52.6528C64.894 52.6528 64.9021 52.6528 64.9101 52.6528C64.9181 52.6528 64.9261 52.6528 64.9342 52.6528C64.9422 52.6528 64.9502 52.6528 64.9582 52.6528C64.9662 52.6528 64.9742 52.6528 64.9822 52.6528C64.9901 52.6528 64.9981 52.6528 65.0061 52.6528C65.014 52.6528 65.022 52.6528 65.03 52.6528C65.0379 52.6528 65.0459 52.6528 65.0538 52.6528C65.0617 52.6528 65.0696 52.6528 65.0776 52.6528C65.0855 52.6528 65.0934 52.6528 65.1013 52.6528C65.1092 52.6528 65.1171 52.6528 65.125 52.6528C65.1329 52.6528 65.1408 52.6528 65.1486 52.6528C65.1565 52.6528 65.1644 52.6528 65.1722 52.6528C65.1801 52.6528 65.1879 52.6528 65.1957 52.6528C65.2036 52.6528 65.2114 52.6528 65.2192 52.6528C65.2271 52.6528 65.2349 52.6528 65.2427 52.6528C65.2505 52.6528 65.2583 52.6528 65.2661 52.6528C65.2738 52.6528 65.2816 52.6528 65.2894 52.6528C65.2972 52.6528 65.3049 52.6528 65.3127 52.6528C65.3204 52.6528 65.3282 52.6528 65.3359 52.6528C65.3437 52.6528 65.3514 52.6528 65.3591 52.6528C65.3668 52.6528 65.3745 52.6528 65.3822 52.6528C65.3899 52.6528 65.3976 52.6528 65.4053 52.6528C65.413 52.6528 65.4207 52.6528 65.4284 52.6528C65.436 52.6528 65.4437 52.6528 65.4513 52.6528C65.459 52.6528 65.4666 52.6528 65.4743 52.6528C65.4819 52.6528 65.4895 52.6528 65.4971 52.6528C65.5048 52.6528 65.5124 52.6528 65.52 52.6528C65.5276 52.6528 65.5351 52.6528 65.5427 52.6528C65.5503 52.6528 65.5579 52.6528 65.5654 52.6528C65.573 52.6528 65.5806 52.6528 65.5881 52.6528C65.5956 52.6528 65.6032 52.6528 65.6107 52.6528C65.6182 52.6528 65.6258 52.6528 65.6333 52.6528C65.6408 52.6528 65.6483 52.6528 65.6558 52.6528C65.6633 52.6528 65.6707 52.6528 65.6782 52.6528C65.6857 52.6528 65.6931 52.6528 65.7006 52.6528C65.7081 52.6528 65.7155 52.6528 65.7229 52.6528C65.7304 52.6528 65.7378 52.6528 65.7452 52.6528C65.7526 52.6528 65.76 52.6528 65.7674 52.6528C65.7748 52.6528 65.7822 52.6528 65.7896 52.6528C65.797 52.6528 65.8044 52.6528 65.8117 52.6528C65.8191 52.6528 65.8264 52.6528 65.8338 52.6528C65.8411 52.6528 65.8485 52.6528 65.8558 52.6528C65.8631 52.6528 65.8704 52.6528 65.8777 52.6528C65.885 52.6528 65.8923 52.6528 65.8996 52.6528C65.9069 52.6528 65.9142 52.6528 65.9215 52.6528C65.9287 52.6528 65.936 52.6528 65.9432 52.6528C65.9505 52.6528 65.9577 52.6528 65.9649 52.6528C65.9722 52.6528 65.9794 52.6528 65.9866 52.6528C65.9938 52.6528 66.001 52.6528 66.0082 52.6528C66.0154 52.6528 66.0226 52.6528 66.0297 52.6528C66.0369 52.6528 66.0441 52.6528 66.0512 52.6528C66.0584 52.6528 66.0655 52.6528 66.0727 52.6528C66.0798 52.6528 66.0869 52.6528 66.094 52.6528C66.1011 52.6528 66.1082 52.6528 66.1153 52.6528C66.1224 52.6528 66.1295 52.6528 66.1366 52.6528C66.1436 52.6528 66.1507 52.6528 66.1578 52.6528C66.1648 52.6528 66.1719 52.6528 66.1789 52.6528C66.1859 52.6528 66.1929 52.6528 66.2 52.6528C66.207 52.6528 66.214 52.6528 66.221 52.6528C66.228 52.6528 66.2349 52.6528 66.2419 52.6528C66.2489 52.6528 66.2558 52.6528 66.2628 52.6528C66.2697 52.6528 66.2767 52.6528 66.2836 52.6528C66.2905 52.6528 66.2975 52.6528 66.3044 52.6528C66.3113 52.6528 66.3182 52.6528 66.3251 52.6528C66.332 52.6528 66.3388 52.6528 66.3457 52.6528C66.3526 52.6528 66.3594 52.6528 66.3663 52.6528C66.3731 52.6528 66.38 52.6528 66.3868 52.6528C66.3936 52.6528 66.4004 52.6528 66.4073 52.6528C66.4141 52.6528 66.4209 52.6528 66.4276 52.6528C66.4344 52.6528 66.4412 52.6528 66.448 52.6528C66.4547 52.6528 66.4615 52.6528 66.4682 52.6528C66.475 52.6528 66.4817 52.6528 66.4884 52.6528C66.4951 52.6528 66.5019 52.6528 66.5086 52.6528C66.5153 52.6528 66.5219 52.6528 66.5286 52.6528C66.5353 52.6528 66.542 52.6528 66.5486 52.6528C66.5553 52.6528 66.5619 52.6528 66.5686 52.6528C66.5752 52.6528 66.5818 52.6528 66.5884 52.6528C66.5951 52.6528 66.6017 52.6528 66.6083 52.6528C66.6148 52.6528 66.6214 52.6528 66.628 52.6528C66.6346 52.6528 66.6411 52.6528 66.6477 52.6528C66.6542 52.6528 66.6608 52.6528 66.6673 52.6528C66.6738 52.6528 66.6803 52.6528 66.6868 52.6528C66.6933 52.6528 66.6998 52.6528 66.7063 52.6528C66.7128 52.6528 66.7193 52.6528 66.7257 52.6528C66.7322 52.6528 66.7386 52.6528 66.7451 52.6528C66.7515 52.6528 66.7579 52.6528 66.7644 52.6528C66.7708 52.6528 66.7772 52.6528 66.7836 52.6528C66.79 52.6528 66.7964 52.6528 66.8027 52.6528C66.8091 52.6528 66.8155 52.6528 66.8218 52.6528C66.8281 52.6528 66.8345 52.6528 66.8408 52.6528C66.8471 52.6528 66.8534 52.6528 66.8598 52.6528C66.8661 52.6528 66.8723 52.6528 66.8786 52.6528C66.8849 52.6528 66.8912 52.6528 66.8974 52.6528C66.9037 52.6528 66.9099 52.6528 66.9162 52.6528C66.9224 52.6528 66.9286 52.6528 66.9348 52.6528C66.941 52.6528 66.9472 52.6528 66.9534 52.6528C66.9596 52.6528 66.9658 52.6528 66.972 52.6528C66.9781 52.6528 66.9843 52.6528 66.9904 52.6528C66.9965 52.6528 67.0027 52.6528 67.0088 52.6528C67.0149 52.6528 67.021 52.6528 67.0271 52.6528C67.0332 52.6528 67.0393 52.6528 67.0454 52.6528C67.0514 52.6528 67.0575 52.6528 67.0635 52.6528C67.0696 52.6528 67.0756 52.6528 67.0816 52.6528C67.0877 52.6528 67.0937 52.6528 67.0997 52.6528C67.1057 52.6528 67.1117 52.6528 67.1176 52.6528C67.1236 52.6528 67.1296 52.6528 67.1355 52.6528C67.1415 52.6528 67.1474 52.6528 67.1533 52.6528C67.1593 52.6528 67.1652 52.6528 67.1711 52.6528C67.177 52.6528 67.1829 52.6528 67.1887 52.6528C67.1946 52.6528 67.2005 52.6528 67.2063 52.6528C67.2122 52.6528 67.218 52.6528 67.2239 52.6528C67.2297 52.6528 67.2355 52.6528 67.2413 52.6528C67.2471 52.6528 67.2529 52.6528 67.2587 52.6528C67.2645 52.6528 67.2702 52.6528 67.276 52.6528C67.2818 52.6528 67.2875 52.6528 67.2932 52.6528C67.299 52.6528 67.3047 52.6528 67.3104 52.6528C67.3161 52.6528 67.3218 52.6528 67.3275 52.6528C67.3331 52.6528 67.3388 52.6528 67.3445 52.6528C67.3501 52.6528 67.3558 52.6528 67.3614 52.6528C67.367 52.6528 67.3726 52.6528 67.3783 52.6528C67.3839 52.6528 67.3895 52.6528 67.395 52.6528C67.4006 52.6528 67.4062 52.6528 67.4117 52.6528C67.4173 52.6528 67.4228 52.6528 67.4284 52.6528C67.4339 52.6528 67.4394 52.6528 67.4449 52.6528C67.4504 52.6528 67.4559 52.6528 67.4614 52.6528C67.4669 52.6528 67.4723 52.6528 67.4778 52.6528C67.4832 52.6528 67.4887 52.6528 67.4941 52.6528C67.4995 52.6528 67.5049 52.6528 67.5103 52.6528C67.5158 52.6528 67.5211 52.6528 67.5265 52.6528C67.5319 52.6528 67.5373 52.6528 67.5426 52.6528C67.548 52.6528 67.5533 52.6528 67.5586 52.6528C67.5639 52.6528 67.5692 52.6528 67.5745 52.6528C67.5798 52.6528 67.5851 52.6528 67.5904 52.6528C67.5957 52.6528 67.6009 52.6528 67.6062 52.6528C67.6114 52.6528 67.6167 52.6528 67.6219 52.6528C67.6271 52.6528 67.6323 52.6528 67.6375 52.6528C67.6427 52.6528 67.6479 52.6528 67.653 52.6528C67.6582 52.6528 67.6633 52.6528 67.6685 52.6528C67.6736 52.6528 67.6787 52.6528 67.6839 52.6528C67.689 52.6528 67.6941 52.6528 67.6992 52.6528C67.7042 52.6528 67.7093 52.6528 67.7144 52.6528C67.7194 52.6528 67.7245 52.6528 67.7295 52.6528C67.7345 52.6528 67.7396 52.6528 67.7446 52.6528C67.7496 52.6528 67.7546 52.6528 67.7595 52.6528C67.7645 52.6528 67.7695 52.6528 67.7744 52.6528C67.7794 52.6528 67.7843 52.6528 67.7892 52.6528V49.6528C67.7843 49.6528 67.7794 49.6528 67.7744 49.6528C67.7695 49.6528 67.7645 49.6528 67.7595 49.6528C67.7546 49.6528 67.7496 49.6528 67.7446 49.6528C67.7396 49.6528 67.7345 49.6528 67.7295 49.6528C67.7245 49.6528 67.7194 49.6528 67.7144 49.6528C67.7093 49.6528 67.7042 49.6528 67.6992 49.6528C67.6941 49.6528 67.689 49.6528 67.6839 49.6528C67.6787 49.6528 67.6736 49.6528 67.6685 49.6528C67.6633 49.6528 67.6582 49.6528 67.653 49.6528C67.6479 49.6528 67.6427 49.6528 67.6375 49.6528C67.6323 49.6528 67.6271 49.6528 67.6219 49.6528C67.6167 49.6528 67.6114 49.6528 67.6062 49.6528C67.6009 49.6528 67.5957 49.6528 67.5904 49.6528C67.5851 49.6528 67.5798 49.6528 67.5745 49.6528C67.5692 49.6528 67.5639 49.6528 67.5586 49.6528C67.5533 49.6528 67.548 49.6528 67.5426 49.6528C67.5373 49.6528 67.5319 49.6528 67.5265 49.6528C67.5211 49.6528 67.5158 49.6528 67.5103 49.6528C67.5049 49.6528 67.4995 49.6528 67.4941 49.6528C67.4887 49.6528 67.4832 49.6528 67.4778 49.6528C67.4723 49.6528 67.4669 49.6528 67.4614 49.6528C67.4559 49.6528 67.4504 49.6528 67.4449 49.6528C67.4394 49.6528 67.4339 49.6528 67.4284 49.6528C67.4228 49.6528 67.4173 49.6528 67.4117 49.6528C67.4062 49.6528 67.4006 49.6528 67.395 49.6528C67.3895 49.6528 67.3839 49.6528 67.3783 49.6528C67.3726 49.6528 67.367 49.6528 67.3614 49.6528C67.3558 49.6528 67.3501 49.6528 67.3445 49.6528C67.3388 49.6528 67.3331 49.6528 67.3275 49.6528C67.3218 49.6528 67.3161 49.6528 67.3104 49.6528C67.3047 49.6528 67.299 49.6528 67.2932 49.6528C67.2875 49.6528 67.2818 49.6528 67.276 49.6528C67.2702 49.6528 67.2645 49.6528 67.2587 49.6528C67.2529 49.6528 67.2471 49.6528 67.2413 49.6528C67.2355 49.6528 67.2297 49.6528 67.2239 49.6528C67.218 49.6528 67.2122 49.6528 67.2063 49.6528C67.2005 49.6528 67.1946 49.6528 67.1887 49.6528C67.1829 49.6528 67.177 49.6528 67.1711 49.6528C67.1652 49.6528 67.1593 49.6528 67.1533 49.6528C67.1474 49.6528 67.1415 49.6528 67.1355 49.6528C67.1296 49.6528 67.1236 49.6528 67.1176 49.6528C67.1117 49.6528 67.1057 49.6528 67.0997 49.6528C67.0937 49.6528 67.0877 49.6528 67.0816 49.6528C67.0756 49.6528 67.0696 49.6528 67.0635 49.6528C67.0575 49.6528 67.0514 49.6528 67.0454 49.6528C67.0393 49.6528 67.0332 49.6528 67.0271 49.6528C67.021 49.6528 67.0149 49.6528 67.0088 49.6528C67.0027 49.6528 66.9965 49.6528 66.9904 49.6528C66.9843 49.6528 66.9781 49.6528 66.972 49.6528C66.9658 49.6528 66.9596 49.6528 66.9534 49.6528C66.9472 49.6528 66.941 49.6528 66.9348 49.6528C66.9286 49.6528 66.9224 49.6528 66.9162 49.6528C66.9099 49.6528 66.9037 49.6528 66.8974 49.6528C66.8912 49.6528 66.8849 49.6528 66.8786 49.6528C66.8723 49.6528 66.8661 49.6528 66.8598 49.6528C66.8534 49.6528 66.8471 49.6528 66.8408 49.6528C66.8345 49.6528 66.8281 49.6528 66.8218 49.6528C66.8155 49.6528 66.8091 49.6528 66.8027 49.6528C66.7964 49.6528 66.79 49.6528 66.7836 49.6528C66.7772 49.6528 66.7708 49.6528 66.7644 49.6528C66.7579 49.6528 66.7515 49.6528 66.7451 49.6528C66.7386 49.6528 66.7322 49.6528 66.7257 49.6528C66.7193 49.6528 66.7128 49.6528 66.7063 49.6528C66.6998 49.6528 66.6933 49.6528 66.6868 49.6528C66.6803 49.6528 66.6738 49.6528 66.6673 49.6528C66.6608 49.6528 66.6542 49.6528 66.6477 49.6528C66.6411 49.6528 66.6346 49.6528 66.628 49.6528C66.6214 49.6528 66.6148 49.6528 66.6083 49.6528C66.6017 49.6528 66.5951 49.6528 66.5884 49.6528C66.5818 49.6528 66.5752 49.6528 66.5686 49.6528C66.5619 49.6528 66.5553 49.6528 66.5486 49.6528C66.542 49.6528 66.5353 49.6528 66.5286 49.6528C66.5219 49.6528 66.5153 49.6528 66.5086 49.6528C66.5019 49.6528 66.4951 49.6528 66.4884 49.6528C66.4817 49.6528 66.475 49.6528 66.4682 49.6528C66.4615 49.6528 66.4547 49.6528 66.448 49.6528C66.4412 49.6528 66.4344 49.6528 66.4276 49.6528C66.4209 49.6528 66.4141 49.6528 66.4073 49.6528C66.4004 49.6528 66.3936 49.6528 66.3868 49.6528C66.38 49.6528 66.3731 49.6528 66.3663 49.6528C66.3594 49.6528 66.3526 49.6528 66.3457 49.6528C66.3388 49.6528 66.332 49.6528 66.3251 49.6528C66.3182 49.6528 66.3113 49.6528 66.3044 49.6528C66.2975 49.6528 66.2905 49.6528 66.2836 49.6528C66.2767 49.6528 66.2697 49.6528 66.2628 49.6528C66.2558 49.6528 66.2489 49.6528 66.2419 49.6528C66.2349 49.6528 66.228 49.6528 66.221 49.6528C66.214 49.6528 66.207 49.6528 66.2 49.6528C66.1929 49.6528 66.1859 49.6528 66.1789 49.6528C66.1719 49.6528 66.1648 49.6528 66.1578 49.6528C66.1507 49.6528 66.1436 49.6528 66.1366 49.6528C66.1295 49.6528 66.1224 49.6528 66.1153 49.6528C66.1082 49.6528 66.1011 49.6528 66.094 49.6528C66.0869 49.6528 66.0798 49.6528 66.0727 49.6528C66.0655 49.6528 66.0584 49.6528 66.0512 49.6528C66.0441 49.6528 66.0369 49.6528 66.0297 49.6528C66.0226 49.6528 66.0154 49.6528 66.0082 49.6528C66.001 49.6528 65.9938 49.6528 65.9866 49.6528C65.9794 49.6528 65.9722 49.6528 65.9649 49.6528C65.9577 49.6528 65.9505 49.6528 65.9432 49.6528C65.936 49.6528 65.9287 49.6528 65.9215 49.6528C65.9142 49.6528 65.9069 49.6528 65.8996 49.6528C65.8923 49.6528 65.885 49.6528 65.8777 49.6528C65.8704 49.6528 65.8631 49.6528 65.8558 49.6528C65.8485 49.6528 65.8411 49.6528 65.8338 49.6528C65.8264 49.6528 65.8191 49.6528 65.8117 49.6528C65.8044 49.6528 65.797 49.6528 65.7896 49.6528C65.7822 49.6528 65.7748 49.6528 65.7674 49.6528C65.76 49.6528 65.7526 49.6528 65.7452 49.6528C65.7378 49.6528 65.7304 49.6528 65.7229 49.6528C65.7155 49.6528 65.7081 49.6528 65.7006 49.6528C65.6931 49.6528 65.6857 49.6528 65.6782 49.6528C65.6707 49.6528 65.6633 49.6528 65.6558 49.6528C65.6483 49.6528 65.6408 49.6528 65.6333 49.6528C65.6258 49.6528 65.6182 49.6528 65.6107 49.6528C65.6032 49.6528 65.5956 49.6528 65.5881 49.6528C65.5806 49.6528 65.573 49.6528 65.5654 49.6528C65.5579 49.6528 65.5503 49.6528 65.5427 49.6528C65.5351 49.6528 65.5276 49.6528 65.52 49.6528C65.5124 49.6528 65.5048 49.6528 65.4971 49.6528C65.4895 49.6528 65.4819 49.6528 65.4743 49.6528C65.4666 49.6528 65.459 49.6528 65.4513 49.6528C65.4437 49.6528 65.436 49.6528 65.4284 49.6528C65.4207 49.6528 65.413 49.6528 65.4053 49.6528C65.3976 49.6528 65.3899 49.6528 65.3822 49.6528C65.3745 49.6528 65.3668 49.6528 65.3591 49.6528C65.3514 49.6528 65.3437 49.6528 65.3359 49.6528C65.3282 49.6528 65.3204 49.6528 65.3127 49.6528C65.3049 49.6528 65.2972 49.6528 65.2894 49.6528C65.2816 49.6528 65.2738 49.6528 65.2661 49.6528C65.2583 49.6528 65.2505 49.6528 65.2427 49.6528C65.2349 49.6528 65.2271 49.6528 65.2192 49.6528C65.2114 49.6528 65.2036 49.6528 65.1957 49.6528C65.1879 49.6528 65.1801 49.6528 65.1722 49.6528C65.1644 49.6528 65.1565 49.6528 65.1486 49.6528C65.1408 49.6528 65.1329 49.6528 65.125 49.6528C65.1171 49.6528 65.1092 49.6528 65.1013 49.6528C65.0934 49.6528 65.0855 49.6528 65.0776 49.6528C65.0696 49.6528 65.0617 49.6528 65.0538 49.6528C65.0459 49.6528 65.0379 49.6528 65.03 49.6528C65.022 49.6528 65.014 49.6528 65.0061 49.6528C64.9981 49.6528 64.9901 49.6528 64.9822 49.6528C64.9742 49.6528 64.9662 49.6528 64.9582 49.6528C64.9502 49.6528 64.9422 49.6528 64.9342 49.6528C64.9261 49.6528 64.9181 49.6528 64.9101 49.6528C64.9021 49.6528 64.894 49.6528 64.886 49.6528C64.8779 49.6528 64.8699 49.6528 64.8618 49.6528C64.8538 49.6528 64.8457 49.6528 64.8376 49.6528C64.8295 49.6528 64.8215 49.6528 64.8134 49.6528C64.8053 49.6528 64.7972 49.6528 64.7891 49.6528C64.781 49.6528 64.7728 49.6528 64.7647 49.6528C64.7566 49.6528 64.7485 49.6528 64.7403 49.6528C64.7322 49.6528 64.7241 49.6528 64.7159 49.6528C64.7078 49.6528 64.6996 49.6528 64.6914 49.6528C64.6833 49.6528 64.6751 49.6528 64.6669 49.6528C64.6587 49.6528 64.6505 49.6528 64.6423 49.6528C64.6341 49.6528 64.6259 49.6528 64.6177 49.6528C64.6095 49.6528 64.6013 49.6528 64.5931 49.6528C64.5849 49.6528 64.5766 49.6528 64.5684 49.6528C64.5601 49.6528 64.5519 49.6528 64.5436 49.6528C64.5354 49.6528 64.5271 49.6528 64.5189 49.6528C64.5106 49.6528 64.5023 49.6528 64.494 49.6528C64.4857 49.6528 64.4775 49.6528 64.4692 49.6528C64.4609 49.6528 64.4526 49.6528 64.4442 49.6528C64.4359 49.6528 64.4276 49.6528 64.4193 49.6528C64.411 49.6528 64.4026 49.6528 64.3943 49.6528C64.386 49.6528 64.3776 49.6528 64.3693 49.6528C64.3609 49.6528 64.3526 49.6528 64.3442 49.6528C64.3358 49.6528 64.3274 49.6528 64.3191 49.6528C64.3107 49.6528 64.3023 49.6528 64.2939 49.6528C64.2855 49.6528 64.2771 49.6528 64.2687 49.6528C64.2603 49.6528 64.2519 49.6528 64.2435 49.6528C64.2351 49.6528 64.2266 49.6528 64.2182 49.6528C64.2098 49.6528 64.2013 49.6528 64.1929 49.6528C64.1844 49.6528 64.176 49.6528 64.1675 49.6528C64.1591 49.6528 64.1506 49.6528 64.1421 49.6528C64.1336 49.6528 64.1252 49.6528 64.1167 49.6528C64.1082 49.6528 64.0997 49.6528 64.0912 49.6528C64.0827 49.6528 64.0742 49.6528 64.0657 49.6528C64.0572 49.6528 64.0487 49.6528 64.0401 49.6528C64.0316 49.6528 64.0231 49.6528 64.0145 49.6528C64.006 49.6528 63.9975 49.6528 63.9889 49.6528C63.9804 49.6528 63.9718 49.6528 63.9632 49.6528C63.9547 49.6528 63.9461 49.6528 63.9375 49.6528C63.929 49.6528 63.9204 49.6528 63.9118 49.6528C63.9032 49.6528 63.8946 49.6528 63.886 49.6528C63.8774 49.6528 63.8688 49.6528 63.8602 49.6528C63.8516 49.6528 63.843 49.6528 63.8343 49.6528C63.8257 49.6528 63.8171 49.6528 63.8085 49.6528C63.7998 49.6528 63.7912 49.6528 63.7825 49.6528C63.7739 49.6528 63.7652 49.6528 63.7566 49.6528C63.7479 49.6528 63.7392 49.6528 63.7306 49.6528C63.7219 49.6528 63.7132 49.6528 63.7045 49.6528C63.6959 49.6528 63.6872 49.6528 63.6785 49.6528C63.6698 49.6528 63.6611 49.6528 63.6524 49.6528C63.6437 49.6528 63.635 49.6528 63.6262 49.6528C63.6175 49.6528 63.6088 49.6528 63.6001 49.6528C63.5914 49.6528 63.5826 49.6528 63.5739 49.6528C63.5651 49.6528 63.5564 49.6528 63.5476 49.6528C63.5389 49.6528 63.5301 49.6528 63.5214 49.6528C63.5126 49.6528 63.5038 49.6528 63.4951 49.6528C63.4863 49.6528 63.4775 49.6528 63.4687 49.6528C63.4599 49.6528 63.4512 49.6528 63.4424 49.6528C63.4336 49.6528 63.4248 49.6528 63.416 49.6528C63.4072 49.6528 63.3983 49.6528 63.3895 49.6528C63.3807 49.6528 63.3719 49.6528 63.3631 49.6528C63.3542 49.6528 63.3454 49.6528 63.3366 49.6528C63.3277 49.6528 63.3189 49.6528 63.31 49.6528C63.3012 49.6528 63.2923 49.6528 63.2835 49.6528C63.2746 49.6528 63.2658 49.6528 63.2569 49.6528C63.248 49.6528 63.2391 49.6528 63.2303 49.6528C63.2214 49.6528 63.2125 49.6528 63.2036 49.6528C63.1947 49.6528 63.1858 49.6528 63.1769 49.6528C63.168 49.6528 63.1591 49.6528 63.1502 49.6528C63.1413 49.6528 63.1324 49.6528 63.1235 49.6528C63.1145 49.6528 63.1056 49.6528 63.0967 49.6528C63.0878 49.6528 63.0788 49.6528 63.0699 49.6528C63.061 49.6528 63.052 49.6528 63.0431 49.6528C63.0341 49.6528 63.0252 49.6528 63.0162 49.6528C63.0072 49.6528 62.9983 49.6528 62.9893 49.6528C62.9803 49.6528 62.9714 49.6528 62.9624 49.6528C62.9534 49.6528 62.9444 49.6528 62.9355 49.6528C62.9265 49.6528 62.9175 49.6528 62.9085 49.6528C62.8995 49.6528 62.8905 49.6528 62.8815 49.6528C62.8725 49.6528 62.8635 49.6528 62.8545 49.6528C62.8454 49.6528 62.8364 49.6528 62.8274 49.6528C62.8184 49.6528 62.8093 49.6528 62.8003 49.6528C62.7913 49.6528 62.7822 49.6528 62.7732 49.6528C62.7642 49.6528 62.7551 49.6528 62.7461 49.6528C62.737 49.6528 62.728 49.6528 62.7189 49.6528C62.7099 49.6528 62.7008 49.6528 62.6917 49.6528C62.6827 49.6528 62.6736 49.6528 62.6645 49.6528C62.6554 49.6528 62.6464 49.6528 62.6373 49.6528C62.6282 49.6528 62.6191 49.6528 62.61 49.6528C62.6009 49.6528 62.5918 49.6528 62.5827 49.6528C62.5736 49.6528 62.5645 49.6528 62.5554 49.6528C62.5463 49.6528 62.5372 49.6528 62.5281 49.6528C62.5189 49.6528 62.5098 49.6528 62.5007 49.6528C62.4916 49.6528 62.4825 49.6528 62.4733 49.6528C62.4642 49.6528 62.455 49.6528 62.4459 49.6528C62.4368 49.6528 62.4276 49.6528 62.4185 49.6528C62.4093 49.6528 62.4002 49.6528 62.391 49.6528C62.3819 49.6528 62.3727 49.6528 62.3635 49.6528C62.3544 49.6528 62.3452 49.6528 62.336 49.6528C62.3269 49.6528 62.3177 49.6528 62.3085 49.6528C62.2993 49.6528 62.2901 49.6528 62.281 49.6528C62.2718 49.6528 62.2626 49.6528 62.2534 49.6528C62.2442 49.6528 62.235 49.6528 62.2258 49.6528C62.2166 49.6528 62.2074 49.6528 62.1982 49.6528C62.189 49.6528 62.1798 49.6528 62.1706 49.6528C62.1613 49.6528 62.1521 49.6528 62.1429 49.6528C62.1337 49.6528 62.1245 49.6528 62.1152 49.6528C62.106 49.6528 62.0968 49.6528 62.0875 49.6528C62.0783 49.6528 62.0691 49.6528 62.0598 49.6528C62.0506 49.6528 62.0413 49.6528 62.0321 49.6528C62.0228 49.6528 62.0136 49.6528 62.0043 49.6528C61.9951 49.6528 61.9858 49.6528 61.9765 49.6528C61.9673 49.6528 61.958 49.6528 61.9487 49.6528C61.9395 49.6528 61.9302 49.6528 61.9209 49.6528C61.9117 49.6528 61.9024 49.6528 61.8931 49.6528C61.8838 49.6528 61.8745 49.6528 61.8652 49.6528C61.856 49.6528 61.8467 49.6528 61.8374 49.6528C61.8281 49.6528 61.8188 49.6528 61.8095 49.6528C61.8002 49.6528 61.7909 49.6528 61.7816 49.6528C61.7723 49.6528 61.763 49.6528 61.7537 49.6528C61.7443 49.6528 61.735 49.6528 61.7257 49.6528C61.7164 49.6528 61.7071 49.6528 61.6978 49.6528C61.6884 49.6528 61.6791 49.6528 61.6698 49.6528C61.6604 49.6528 61.6511 49.6528 61.6418 49.6528C61.6324 49.6528 61.6231 49.6528 61.6138 49.6528C61.6044 49.6528 61.5951 49.6528 61.5857 49.6528C61.5764 49.6528 61.5671 49.6528 61.5577 49.6528C61.5484 49.6528 61.539 49.6528 61.5297 49.6528C61.5203 49.6528 61.5109 49.6528 61.5016 49.6528C61.4922 49.6528 61.4829 49.6528 61.4735 49.6528C61.4641 49.6528 61.4548 49.6528 61.4454 49.6528C61.436 49.6528 61.4266 49.6528 61.4173 49.6528C61.4079 49.6528 61.3985 49.6528 61.3891 49.6528C61.3798 49.6528 61.3704 49.6528 61.361 49.6528C61.3516 49.6528 61.3422 49.6528 61.3328 49.6528C61.3234 49.6528 61.314 49.6528 61.3047 49.6528C61.2953 49.6528 61.2859 49.6528 61.2765 49.6528C61.2671 49.6528 61.2577 49.6528 61.2483 49.6528C61.2389 49.6528 61.2295 49.6528 61.2201 49.6528C61.2106 49.6528 61.2012 49.6528 61.1918 49.6528C61.1824 49.6528 61.173 49.6528 61.1636 49.6528C61.1542 49.6528 61.1448 49.6528 61.1353 49.6528C61.1259 49.6528 61.1165 49.6528 61.1071 49.6528C61.0976 49.6528 61.0882 49.6528 61.0788 49.6528C61.0694 49.6528 61.0599 49.6528 61.0505 49.6528C61.0411 49.6528 61.0316 49.6528 61.0222 49.6528C61.0128 49.6528 61.0033 49.6528 60.9939 49.6528C60.9845 49.6528 60.975 49.6528 60.9656 49.6528C60.9561 49.6528 60.9467 49.6528 60.9372 49.6528C60.9278 49.6528 60.9184 49.6528 60.9089 49.6528C60.8995 49.6528 60.89 49.6528 60.8806 49.6528C60.8711 49.6528 60.8616 49.6528 60.8522 49.6528C60.8427 49.6528 60.8333 49.6528 60.8238 49.6528C60.8144 49.6528 60.8049 49.6528 60.7954 49.6528C60.786 49.6528 60.7765 49.6528 60.7671 49.6528C60.7576 49.6528 60.7481 49.6528 60.7387 49.6528C60.7292 49.6528 60.7197 49.6528 60.7102 49.6528C60.7008 49.6528 60.6913 49.6528 60.6818 49.6528C60.6724 49.6528 60.6629 49.6528 60.6534 49.6528C60.6439 49.6528 60.6345 49.6528 60.625 49.6528C60.6155 49.6528 60.606 49.6528 60.5965 49.6528C60.5871 49.6528 60.5776 49.6528 60.5681 49.6528C60.5586 49.6528 60.5491 49.6528 60.5396 49.6528C60.5301 49.6528 60.5207 49.6528 60.5112 49.6528C60.5017 49.6528 60.4922 49.6528 60.4827 49.6528C60.4732 49.6528 60.4637 49.6528 60.4542 49.6528C60.4447 49.6528 60.4352 49.6528 60.4258 49.6528C60.4163 49.6528 60.4068 49.6528 60.3973 49.6528C60.3878 49.6528 60.3783 49.6528 60.3688 49.6528C60.3593 49.6528 60.3498 49.6528 60.3403 49.6528C60.3308 49.6528 60.3213 49.6528 60.3118 49.6528C60.3023 49.6528 60.2928 49.6528 60.2833 49.6528C60.2738 49.6528 60.2643 49.6528 60.2548 49.6528C60.2452 49.6528 60.2357 49.6528 60.2262 49.6528C60.2167 49.6528 60.2072 49.6528 60.1977 49.6528C60.1882 49.6528 60.1787 49.6528 60.1692 49.6528C60.1597 49.6528 60.1502 49.6528 60.1407 49.6528C60.1311 49.6528 60.1216 49.6528 60.1121 49.6528C60.1026 49.6528 60.0931 49.6528 60.0836 49.6528C60.0741 49.6528 60.0646 49.6528 60.0551 49.6528C60.0455 49.6528 60.036 49.6528 60.0265 49.6528C60.017 49.6528 60.0075 49.6528 59.998 49.6528C59.9884 49.6528 59.9789 49.6528 59.9694 49.6528C59.9599 49.6528 59.9504 49.6528 59.9409 49.6528C59.9314 49.6528 59.9218 49.6528 59.9123 49.6528C59.9028 49.6528 59.8933 49.6528 59.8838 49.6528C59.8742 49.6528 59.8647 49.6528 59.8552 49.6528C59.8457 49.6528 59.8362 49.6528 59.8267 49.6528C59.8171 49.6528 59.8076 49.6528 59.7981 49.6528C59.7886 49.6528 59.7791 49.6528 59.7695 49.6528C59.76 49.6528 59.7505 49.6528 59.741 49.6528C59.7315 49.6528 59.7219 49.6528 59.7124 49.6528C59.7029 49.6528 59.6934 49.6528 59.6839 49.6528C59.6744 49.6528 59.6648 49.6528 59.6553 49.6528C59.6458 49.6528 59.6363 49.6528 59.6268 49.6528C59.6172 49.6528 59.6077 49.6528 59.5982 49.6528C59.5887 49.6528 59.5792 49.6528 59.5696 49.6528C59.5601 49.6528 59.5506 49.6528 59.5411 49.6528C59.5316 49.6528 59.5221 49.6528 59.5125 49.6528C59.503 49.6528 59.4935 49.6528 59.484 49.6528C59.4745 49.6528 59.465 49.6528 59.4554 49.6528C59.4459 49.6528 59.4364 49.6528 59.4269 49.6528C59.4174 49.6528 59.4079 49.6528 59.3984 49.6528C59.3888 49.6528 59.3793 49.6528 59.3698 49.6528C59.3603 49.6528 59.3508 49.6528 59.3413 49.6528C59.3318 49.6528 59.3223 49.6528 59.3128 49.6528C59.3032 49.6528 59.2937 49.6528 59.2842 49.6528C59.2747 49.6528 59.2652 49.6528 59.2557 49.6528C59.2462 49.6528 59.2367 49.6528 59.2272 49.6528C59.2177 49.6528 59.2082 49.6528 59.1987 49.6528C59.1891 49.6528 59.1796 49.6528 59.1701 49.6528C59.1606 49.6528 59.1511 49.6528 59.1416 49.6528C59.1321 49.6528 59.1226 49.6528 59.1131 49.6528C59.1036 49.6528 59.0941 49.6528 59.0846 49.6528C59.0751 49.6528 59.0656 49.6528 59.0561 49.6528C59.0466 49.6528 59.0371 49.6528 59.0276 49.6528C59.0182 49.6528 59.0087 49.6528 58.9992 49.6528C58.9897 49.6528 58.9802 49.6528 58.9707 49.6528C58.9612 49.6528 58.9517 49.6528 58.9422 49.6528C58.9327 49.6528 58.9232 49.6528 58.9138 49.6528C58.9043 49.6528 58.8948 49.6528 58.8853 49.6528C58.8758 49.6528 58.8663 49.6528 58.8569 49.6528C58.8474 49.6528 58.8379 49.6528 58.8284 49.6528C58.8189 49.6528 58.8095 49.6528 58.8 49.6528C58.7905 49.6528 58.781 49.6528 58.7716 49.6528C58.7621 49.6528 58.7526 49.6528 58.7431 49.6528C58.7337 49.6528 58.7242 49.6528 58.7147 49.6528C58.7053 49.6528 58.6958 49.6528 58.6863 49.6528C58.6769 49.6528 58.6674 49.6528 58.6579 49.6528C58.6485 49.6528 58.639 49.6528 58.6296 49.6528C58.6201 49.6528 58.6106 49.6528 58.6012 49.6528C58.5917 49.6528 58.5823 49.6528 58.5728 49.6528C58.5634 49.6528 58.5539 49.6528 58.5445 49.6528C58.535 49.6528 58.5256 49.6528 58.5161 49.6528C58.5067 49.6528 58.4972 49.6528 58.4878 49.6528C58.4783 49.6528 58.4689 49.6528 58.4595 49.6528C58.45 49.6528 58.4406 49.6528 58.4312 49.6528C58.4217 49.6528 58.4123 49.6528 58.4029 49.6528C58.3934 49.6528 58.384 49.6528 58.3746 49.6528C58.3651 49.6528 58.3557 49.6528 58.3463 49.6528C58.3369 49.6528 58.3274 49.6528 58.318 49.6528C58.3086 49.6528 58.2992 49.6528 58.2898 49.6528C58.2804 49.6528 58.2709 49.6528 58.2615 49.6528C58.2521 49.6528 58.2427 49.6528 58.2333 49.6528C58.2239 49.6528 58.2145 49.6528 58.2051 49.6528C58.1957 49.6528 58.1863 49.6528 58.1769 49.6528C58.1675 49.6528 58.1581 49.6528 58.1487 49.6528C58.1393 49.6528 58.1299 49.6528 58.1205 49.6528C58.1111 49.6528 58.1017 49.6528 58.0923 49.6528C58.083 49.6528 58.0736 49.6528 58.0642 49.6528C58.0548 49.6528 58.0454 49.6528 58.0361 49.6528C58.0267 49.6528 58.0173 49.6528 58.0079 49.6528C57.9986 49.6528 57.9892 49.6528 57.9798 49.6528C57.9705 49.6528 57.9611 49.6528 57.9517 49.6528C57.9424 49.6528 57.933 49.6528 57.9237 49.6528C57.9143 49.6528 57.905 49.6528 57.8956 49.6528C57.8863 49.6528 57.8769 49.6528 57.8676 49.6528C57.8582 49.6528 57.8489 49.6528 57.8395 49.6528C57.8302 49.6528 57.8209 49.6528 57.8115 49.6528C57.8022 49.6528 57.7929 49.6528 57.7835 49.6528C57.7742 49.6528 57.7649 49.6528 57.7556 49.6528C57.7462 49.6528 57.7369 49.6528 57.7276 49.6528C57.7183 49.6528 57.709 49.6528 57.6996 49.6528C57.6903 49.6528 57.681 49.6528 57.6717 49.6528C57.6624 49.6528 57.6531 49.6528 57.6438 49.6528C57.6345 49.6528 57.6252 49.6528 57.6159 49.6528C57.6066 49.6528 57.5973 49.6528 57.588 49.6528C57.5788 49.6528 57.5695 49.6528 57.5602 49.6528C57.5509 49.6528 57.5416 49.6528 57.5323 49.6528C57.5231 49.6528 57.5138 49.6528 57.5045 49.6528C57.4953 49.6528 57.486 49.6528 57.4767 49.6528C57.4675 49.6528 57.4582 49.6528 57.4489 49.6528C57.4397 49.6528 57.4304 49.6528 57.4212 49.6528C57.4119 49.6528 57.4027 49.6528 57.3934 49.6528C57.3842 49.6528 57.375 49.6528 57.3657 49.6528C57.3565 49.6528 57.3473 49.6528 57.338 49.6528C57.3288 49.6528 57.3196 49.6528 57.3103 49.6528C57.3011 49.6528 57.2919 49.6528 57.2827 49.6528C57.2735 49.6528 57.2643 49.6528 57.2551 49.6528C57.2458 49.6528 57.2366 49.6528 57.2274 49.6528C57.2182 49.6528 57.209 49.6528 57.1998 49.6528C57.1906 49.6528 57.1815 49.6528 57.1723 49.6528C57.1631 49.6528 57.1539 49.6528 57.1447 49.6528C57.1355 49.6528 57.1264 49.6528 57.1172 49.6528C57.108 49.6528 57.0988 49.6528 57.0897 49.6528C57.0805 49.6528 57.0714 49.6528 57.0622 49.6528C57.053 49.6528 57.0439 49.6528 57.0347 49.6528C57.0256 49.6528 57.0164 49.6528 57.0073 49.6528C56.9982 49.6528 56.989 49.6528 56.9799 49.6528C56.9707 49.6528 56.9616 49.6528 56.9525 49.6528C56.9434 49.6528 56.9342 49.6528 56.9251 49.6528C56.916 49.6528 56.9069 49.6528 56.8978 49.6528C56.8887 49.6528 56.8796 49.6528 56.8705 49.6528C56.8614 49.6528 56.8523 49.6528 56.8432 49.6528C56.8341 49.6528 56.825 49.6528 56.8159 49.6528C56.8068 49.6528 56.7977 49.6528 56.7887 49.6528C56.7796 49.6528 56.7705 49.6528 56.7614 49.6528C56.7524 49.6528 56.7433 49.6528 56.7342 49.6528C56.7252 49.6528 56.7161 49.6528 56.7071 49.6528C56.698 49.6528 56.689 49.6528 56.6799 49.6528C56.6709 49.6528 56.6619 49.6528 56.6528 49.6528C56.6438 49.6528 56.6348 49.6528 56.6257 49.6528C56.6167 49.6528 56.6077 49.6528 56.5987 49.6528C56.5897 49.6528 56.5807 49.6528 56.5716 49.6528C56.5626 49.6528 56.5536 49.6528 56.5446 49.6528C56.5356 49.6528 56.5267 49.6528 56.5177 49.6528C56.5087 49.6528 56.4997 49.6528 56.4907 49.6528C56.4817 49.6528 56.4728 49.6528 56.4638 49.6528C56.4548 49.6528 56.4459 49.6528 56.4369 49.6528C56.4279 49.6528 56.419 49.6528 56.41 49.6528C56.4011 49.6528 56.3921 49.6528 56.3832 49.6528C56.3743 49.6528 56.3653 49.6528 56.3564 49.6528C56.3475 49.6528 56.3385 49.6528 56.3296 49.6528C56.3207 49.6528 56.3118 49.6528 56.3029 49.6528C56.294 49.6528 56.285 49.6528 56.2761 49.6528C56.2672 49.6528 56.2583 49.6528 56.2495 49.6528C56.2406 49.6528 56.2317 49.6528 56.2228 49.6528C56.2139 49.6528 56.205 49.6528 56.1962 49.6528C56.1873 49.6528 56.1784 49.6528 56.1696 49.6528C56.1607 49.6528 56.1519 49.6528 56.143 49.6528C56.1342 49.6528 56.1253 49.6528 56.1165 49.6528C56.1076 49.6528 56.0988 49.6528 56.09 49.6528C56.0811 49.6528 56.0723 49.6528 56.0635 49.6528C56.0547 49.6528 56.0459 49.6528 56.0371 49.6528C56.0282 49.6528 56.0194 49.6528 56.0106 49.6528C56.0019 49.6528 55.9931 49.6528 55.9843 49.6528C55.9755 49.6528 55.9667 49.6528 55.9579 49.6528C55.9492 49.6528 55.9404 49.6528 55.9316 49.6528C55.9229 49.6528 55.9141 49.6528 55.9053 49.6528C55.8966 49.6528 55.8878 49.6528 55.8791 49.6528C55.8704 49.6528 55.8616 49.6528 55.8529 49.6528C55.8442 49.6528 55.8354 49.6528 55.8267 49.6528C55.818 49.6528 55.8093 49.6528 55.8006 49.6528C55.7919 49.6528 55.7832 49.6528 55.7745 49.6528C55.7658 49.6528 55.7571 49.6528 55.7484 49.6528C55.7397 49.6528 55.731 49.6528 55.7224 49.6528C55.7137 49.6528 55.705 49.6528 55.6964 49.6528C55.6877 49.6528 55.679 49.6528 55.6704 49.6528C55.6617 49.6528 55.6531 49.6528 55.6445 49.6528C55.6358 49.6528 55.6272 49.6528 55.6186 49.6528C55.6099 49.6528 55.6013 49.6528 55.5927 49.6528C55.5841 49.6528 55.5755 49.6528 55.5669 49.6528C55.5583 49.6528 55.5497 49.6528 55.5411 49.6528C55.5325 49.6528 55.5239 49.6528 55.5154 49.6528C55.5068 49.6528 55.4982 49.6528 55.4896 49.6528C55.4811 49.6528 55.4725 49.6528 55.464 49.6528C55.4554 49.6528 55.4469 49.6528 55.4383 49.6528C55.4298 49.6528 55.4213 49.6528 55.4127 49.6528C55.4042 49.6528 55.3957 49.6528 55.3872 49.6528C55.3787 49.6528 55.3702 49.6528 55.3617 49.6528C55.3531 49.6528 55.3447 49.6528 55.3362 49.6528C55.3277 49.6528 55.3192 49.6528 55.3107 49.6528C55.3022 49.6528 55.2938 49.6528 55.2853 49.6528C55.2769 49.6528 55.2684 49.6528 55.2599 49.6528C55.2515 49.6528 55.2431 49.6528 55.2346 49.6528C55.2262 49.6528 55.2178 49.6528 55.2093 49.6528C55.2009 49.6528 55.1925 49.6528 55.1841 49.6528C55.1757 49.6528 55.1673 49.6528 55.1589 49.6528C55.1505 49.6528 55.1421 49.6528 55.1337 49.6528C55.1253 49.6528 55.117 49.6528 55.1086 49.6528C55.1002 49.6528 55.0919 49.6528 55.0835 49.6528C55.0751 49.6528 55.0668 49.6528 55.0585 49.6528C55.0501 49.6528 55.0418 49.6528 55.0335 49.6528C55.0251 49.6528 55.0168 49.6528 55.0085 49.6528C55.0002 49.6528 54.9919 49.6528 54.9836 49.6528C54.9753 49.6528 54.967 49.6528 54.9587 49.6528C54.9504 49.6528 54.9421 49.6528 54.9339 49.6528V52.6528Z" fill="#0B582A"/>
<circle cx="68.5456" cy="81.4008" r="11.3554" fill="white" stroke="#0B582A" stroke-width="3"/>
</svg>
